M48
INCH
T1C0.0157
T2C0.0276
T3C0.0315
T4C0.0394
T5C0.1260
T6C0.1457
%
G90
G05
T1
X0.1Y-0.05
X0.1Y-0.5
X0.1Y-0.95
X0.1Y-1.4
X0.1Y-1.95
X0.1Y-2.3
X0.4Y-0.95
X0.5Y0.0
X0.5Y-0.325
X0.5Y-1.225
X0.5Y-2.8
X0.6Y-0.575
X0.6Y-1.475
X0.7Y-0.95
X0.7Y-2.41
X0.725Y-1.95
X0.8Y-2.8
X1.0Y0.0
X1.0Y-0.325
X1.0Y-0.95
X1.0Y-1.225
X1.0Y-2.43
X1.05Y-2.175
X1.05Y-2.29
X1.05Y-2.38
X1.06Y-2.54
X1.1Y-2.8
X1.122Y-2.307
X1.25Y-2.35
X1.27Y-2.499
X1.275Y-2.175
X1.2764Y-2.06
X1.33Y-2.41
X1.36Y-0.3966
X1.36Y-1.2966
X1.395Y-2.1376
X1.5Y0.0
X1.5Y-1.45
X1.55Y-2.1
X1.55Y-2.24
X1.55Y-2.36
X1.55Y-2.47
X1.72Y-2.1376
X1.75Y-0.375
X1.75Y-0.55
X1.75Y-1.275
X1.75Y-1.45
X1.8Y-0.95
X1.81Y-2.41
X1.82Y-2.8
X1.9Y-1.79
X2.0Y0.0
X2.0Y-0.95
X2.0Y-1.925
X2.02Y-0.49
X2.02Y-1.39
X2.04Y-2.47
X2.065Y-0.45
X2.065Y-1.35
X2.075Y-1.425
X2.1Y-0.41
X2.1Y-1.31
X2.175Y-2.55
X2.2Y-0.5
X2.2Y-1.425
X2.2Y-2.8
X2.22Y-2.41
X2.275Y-2.15
X2.28Y-2.47
X2.3Y-2.55
X2.325Y-1.925
X2.45Y-2.15
X2.5Y0.0
X2.5Y-1.4
X2.5Y-2.44
X2.5Y-2.625
X2.521Y-1.884
X2.6Y-2.8
X2.7Y-1.925
X2.75Y-0.35
X2.75Y-1.25
X2.82Y-2.46
X2.825Y-2.075
X2.825Y-2.225
X2.8689Y-2.4571
X2.875Y-2.375
X2.895Y-1.884
X2.9Y-0.5
X2.9Y-2.8
X2.99Y-2.471
X2.99Y-2.625
X3.0Y0.0
X3.0Y-0.35
X3.0Y-0.95
X3.0Y-1.25
X3.025Y-2.075
X3.025Y-2.25
X3.05Y-2.5
X3.1Y-1.4
X3.15Y-0.125
X3.15Y-1.025
X3.195Y-2.76
X3.2Y-0.7
X3.2Y-1.6
X3.2134Y-2.3134
X3.225Y-2.25
X3.225Y-2.5
X3.225Y-2.65
X3.3Y-2.8
X3.5Y0.0
X3.55Y-0.125
X3.55Y-1.025
X3.575Y-2.25
X3.7Y-2.35
X3.7Y-2.5
X3.7Y-2.65
X3.7Y-2.8
X3.785Y-2.1218
X3.818Y-2.1041
X3.8588Y-2.0965
X3.9Y-0.5
X3.9Y-0.95
X3.9Y-1.4
X3.9Y-2.0
X3.9Y-2.5
X3.9Y-2.6
X3.9Y-2.7
T2
X0.1Y-0.2
X0.1Y-0.8
X0.1Y-1.1
X0.1Y-1.7
X0.2Y-0.2
X0.2Y-0.8
X0.2Y-1.1
X0.2Y-1.7
X0.3Y-0.2
X0.3Y-0.8
X0.3Y-1.1
X0.3Y-1.7
X0.4Y-0.2
X0.4Y-0.8
X0.4Y-1.1
X0.4Y-1.7
X0.5Y-0.2
X0.5Y-0.8
X0.5Y-1.1
X0.5Y-1.7
X0.6Y-0.2
X0.6Y-0.8
X0.6Y-1.1
X0.6Y-1.7
X0.7Y-0.2
X0.7Y-0.8
X0.7Y-1.1
X0.7Y-1.7
X0.8Y-0.2
X0.8Y-0.8
X0.8Y-1.1
X0.8Y-1.7
X0.9Y-0.2
X0.9Y-0.8
X0.9Y-1.1
X0.9Y-1.7
X1.1Y-0.2
X1.1Y-0.8
X1.1Y-1.1
X1.1Y-1.7
X1.2Y-0.2
X1.2Y-0.8
X1.2Y-1.1
X1.2Y-1.7
X1.3Y-0.2
X1.3Y-0.8
X1.3Y-1.1
X1.3Y-1.7
X1.4Y-0.2
X1.4Y-0.8
X1.4Y-1.1
X1.4Y-1.7
X1.5Y-0.2
X1.5Y-0.8
X1.5Y-1.1
X1.5Y-1.7
X1.6Y-0.2
X1.6Y-0.8
X1.6Y-1.1
X1.6Y-1.7
X1.7Y-0.2
X1.7Y-0.8
X1.7Y-1.1
X1.7Y-1.7
X1.8Y-0.2
X1.8Y-0.8
X1.8Y-1.1
X1.8Y-1.7
X1.9Y-0.2
X1.9Y-0.8
X1.9Y-1.1
X1.9Y-1.7
X2.1Y-0.2
X2.1Y-0.8
X2.1Y-1.1
X2.1Y-1.7
X2.2Y-0.2
X2.2Y-0.8
X2.2Y-1.1
X2.2Y-1.7
X2.3Y-0.2
X2.3Y-0.8
X2.3Y-1.1
X2.3Y-1.7
X2.4Y-0.2
X2.4Y-0.8
X2.4Y-1.1
X2.4Y-1.7
X2.5Y-0.2
X2.5Y-0.8
X2.5Y-1.1
X2.5Y-1.7
X2.6Y-0.2
X2.6Y-0.8
X2.6Y-1.1
X2.6Y-1.7
X2.7Y-0.2
X2.7Y-0.8
X2.7Y-1.1
X2.7Y-1.7
X2.8Y-0.2
X2.8Y-0.8
X2.8Y-1.1
X2.8Y-1.7
X2.9Y-0.2
X2.9Y-0.8
X2.9Y-1.1
X2.9Y-1.7
X3.1Y-0.2
X3.1Y-0.8
X3.1Y-1.1
X3.1Y-1.7
X3.2Y-0.2
X3.2Y-0.8
X3.2Y-1.1
X3.2Y-1.7
X3.3Y-0.2
X3.3Y-0.8
X3.3Y-1.1
X3.3Y-1.7
X3.4Y-0.2
X3.4Y-0.8
X3.4Y-1.1
X3.4Y-1.7
X3.5Y-0.2
X3.5Y-0.8
X3.5Y-1.1
X3.5Y-1.7
X3.6Y-0.2
X3.6Y-0.8
X3.6Y-1.1
X3.6Y-1.7
X3.7Y-0.2
X3.7Y-0.8
X3.7Y-1.1
X3.7Y-1.7
X3.8Y-0.2
X3.8Y-0.8
X3.8Y-1.1
X3.8Y-1.7
X3.9Y-0.2
X3.9Y-0.8
X3.9Y-1.1
X3.9Y-1.7
T3
X2.0Y-2.1199
X2.0Y-2.1986
X2.0Y-2.2774
X2.0Y-2.3561
X2.09Y-2.1199
X2.09Y-2.1986
X2.09Y-2.2774
X2.09Y-2.3561
T4
X0.655Y-2.1081
X0.655Y-2.5019
X1.45Y-2.738
X1.55Y-2.738
X1.6Y-1.915
X1.65Y-2.738
X1.7Y-1.915
X1.75Y-2.738
X1.8Y-1.915
X1.9Y-1.915
X3.131Y-1.996
X3.231Y-1.996
X3.331Y-1.996
X3.431Y-1.996
X3.531Y-1.996
X3.631Y-1.996
T5
X0.2Y0.1
X0.2Y-2.7
X2.0Y-2.7
X3.8Y0.1
T6
X3.3965Y-2.5063
T0
M30
