%TF.GenerationSoftware,KiCad,Pcbnew,7.0.8*%
%TF.CreationDate,2024-01-07T19:19:44+01:00*%
%TF.ProjectId,16SegLed,31365365-674c-4656-942e-6b696361645f,rev?*%
%TF.SameCoordinates,Original*%
%TF.FileFunction,Legend,Top*%
%TF.FilePolarity,Positive*%
%FSLAX46Y46*%
G04 Gerber Fmt 4.6, Leading zero omitted, Abs format (unit mm)*
G04 Created by KiCad (PCBNEW 7.0.8) date 2024-01-07 19:19:44*
%MOMM*%
%LPD*%
G01*
G04 APERTURE LIST*
G04 Aperture macros list*
%AMRoundRect*
0 Rectangle with rounded corners*
0 $1 Rounding radius*
0 $2 $3 $4 $5 $6 $7 $8 $9 X,Y pos of 4 corners*
0 Add a 4 corners polygon primitive as box body*
4,1,4,$2,$3,$4,$5,$6,$7,$8,$9,$2,$3,0*
0 Add four circle primitives for the rounded corners*
1,1,$1+$1,$2,$3*
1,1,$1+$1,$4,$5*
1,1,$1+$1,$6,$7*
1,1,$1+$1,$8,$9*
0 Add four rect primitives between the rounded corners*
20,1,$1+$1,$2,$3,$4,$5,0*
20,1,$1+$1,$4,$5,$6,$7,0*
20,1,$1+$1,$6,$7,$8,$9,0*
20,1,$1+$1,$8,$9,$2,$3,0*%
G04 Aperture macros list end*
%ADD10C,0.150000*%
%ADD11C,0.200000*%
%ADD12C,0.100000*%
%ADD13C,0.120000*%
%ADD14C,1.200000*%
%ADD15RoundRect,0.300000X-0.300000X-0.300000X0.300000X-0.300000X0.300000X0.300000X-0.300000X0.300000X0*%
%ADD16O,1.200000X1.500000*%
%ADD17C,6.400000*%
%ADD18RoundRect,0.250000X0.625000X-0.350000X0.625000X0.350000X-0.625000X0.350000X-0.625000X-0.350000X0*%
%ADD19O,1.750000X1.200000*%
%ADD20RoundRect,0.300000X1.200000X-1.305000X1.200000X1.305000X-1.200000X1.305000X-1.200000X-1.305000X0*%
%ADD21R,1.250000X0.300000*%
%ADD22RoundRect,0.250000X0.550000X-1.500000X0.550000X1.500000X-0.550000X1.500000X-0.550000X-1.500000X0*%
%ADD23C,1.524000*%
%ADD24R,1.700000X1.700000*%
%ADD25O,1.700000X1.700000*%
%ADD26C,4.700000*%
G04 APERTURE END LIST*
D10*
X24607981Y-50576013D02*
G75*
G03*
X27909673Y-58547000I-7970981J-7970987D01*
G01*
X8080951Y-10884819D02*
X8080951Y-11599104D01*
X8080951Y-11599104D02*
X8033332Y-11741961D01*
X8033332Y-11741961D02*
X7938094Y-11837200D01*
X7938094Y-11837200D02*
X7795237Y-11884819D01*
X7795237Y-11884819D02*
X7699999Y-11884819D01*
X9033332Y-11884819D02*
X8557142Y-11884819D01*
X8557142Y-11884819D02*
X8557142Y-10884819D01*
X9938094Y-11789580D02*
X9890475Y-11837200D01*
X9890475Y-11837200D02*
X9747618Y-11884819D01*
X9747618Y-11884819D02*
X9652380Y-11884819D01*
X9652380Y-11884819D02*
X9509523Y-11837200D01*
X9509523Y-11837200D02*
X9414285Y-11741961D01*
X9414285Y-11741961D02*
X9366666Y-11646723D01*
X9366666Y-11646723D02*
X9319047Y-11456247D01*
X9319047Y-11456247D02*
X9319047Y-11313390D01*
X9319047Y-11313390D02*
X9366666Y-11122914D01*
X9366666Y-11122914D02*
X9414285Y-11027676D01*
X9414285Y-11027676D02*
X9509523Y-10932438D01*
X9509523Y-10932438D02*
X9652380Y-10884819D01*
X9652380Y-10884819D02*
X9747618Y-10884819D01*
X9747618Y-10884819D02*
X9890475Y-10932438D01*
X9890475Y-10932438D02*
X9938094Y-10980057D01*
X10652380Y-10884819D02*
X10652380Y-11599104D01*
X10652380Y-11599104D02*
X10604761Y-11741961D01*
X10604761Y-11741961D02*
X10509523Y-11837200D01*
X10509523Y-11837200D02*
X10366666Y-11884819D01*
X10366666Y-11884819D02*
X10271428Y-11884819D01*
X11604761Y-11884819D02*
X11128571Y-11884819D01*
X11128571Y-11884819D02*
X11128571Y-10884819D01*
X12509523Y-11789580D02*
X12461904Y-11837200D01*
X12461904Y-11837200D02*
X12319047Y-11884819D01*
X12319047Y-11884819D02*
X12223809Y-11884819D01*
X12223809Y-11884819D02*
X12080952Y-11837200D01*
X12080952Y-11837200D02*
X11985714Y-11741961D01*
X11985714Y-11741961D02*
X11938095Y-11646723D01*
X11938095Y-11646723D02*
X11890476Y-11456247D01*
X11890476Y-11456247D02*
X11890476Y-11313390D01*
X11890476Y-11313390D02*
X11938095Y-11122914D01*
X11938095Y-11122914D02*
X11985714Y-11027676D01*
X11985714Y-11027676D02*
X12080952Y-10932438D01*
X12080952Y-10932438D02*
X12223809Y-10884819D01*
X12223809Y-10884819D02*
X12319047Y-10884819D01*
X12319047Y-10884819D02*
X12461904Y-10932438D01*
X12461904Y-10932438D02*
X12509523Y-10980057D01*
X13223809Y-10884819D02*
X13223809Y-11599104D01*
X13223809Y-11599104D02*
X13176190Y-11741961D01*
X13176190Y-11741961D02*
X13080952Y-11837200D01*
X13080952Y-11837200D02*
X12938095Y-11884819D01*
X12938095Y-11884819D02*
X12842857Y-11884819D01*
X14176190Y-11884819D02*
X13700000Y-11884819D01*
X13700000Y-11884819D02*
X13700000Y-10884819D01*
X15080952Y-11789580D02*
X15033333Y-11837200D01*
X15033333Y-11837200D02*
X14890476Y-11884819D01*
X14890476Y-11884819D02*
X14795238Y-11884819D01*
X14795238Y-11884819D02*
X14652381Y-11837200D01*
X14652381Y-11837200D02*
X14557143Y-11741961D01*
X14557143Y-11741961D02*
X14509524Y-11646723D01*
X14509524Y-11646723D02*
X14461905Y-11456247D01*
X14461905Y-11456247D02*
X14461905Y-11313390D01*
X14461905Y-11313390D02*
X14509524Y-11122914D01*
X14509524Y-11122914D02*
X14557143Y-11027676D01*
X14557143Y-11027676D02*
X14652381Y-10932438D01*
X14652381Y-10932438D02*
X14795238Y-10884819D01*
X14795238Y-10884819D02*
X14890476Y-10884819D01*
X14890476Y-10884819D02*
X15033333Y-10932438D01*
X15033333Y-10932438D02*
X15080952Y-10980057D01*
X15795238Y-10884819D02*
X15795238Y-11599104D01*
X15795238Y-11599104D02*
X15747619Y-11741961D01*
X15747619Y-11741961D02*
X15652381Y-11837200D01*
X15652381Y-11837200D02*
X15509524Y-11884819D01*
X15509524Y-11884819D02*
X15414286Y-11884819D01*
X16747619Y-11884819D02*
X16271429Y-11884819D01*
X16271429Y-11884819D02*
X16271429Y-10884819D01*
X17652381Y-11789580D02*
X17604762Y-11837200D01*
X17604762Y-11837200D02*
X17461905Y-11884819D01*
X17461905Y-11884819D02*
X17366667Y-11884819D01*
X17366667Y-11884819D02*
X17223810Y-11837200D01*
X17223810Y-11837200D02*
X17128572Y-11741961D01*
X17128572Y-11741961D02*
X17080953Y-11646723D01*
X17080953Y-11646723D02*
X17033334Y-11456247D01*
X17033334Y-11456247D02*
X17033334Y-11313390D01*
X17033334Y-11313390D02*
X17080953Y-11122914D01*
X17080953Y-11122914D02*
X17128572Y-11027676D01*
X17128572Y-11027676D02*
X17223810Y-10932438D01*
X17223810Y-10932438D02*
X17366667Y-10884819D01*
X17366667Y-10884819D02*
X17461905Y-10884819D01*
X17461905Y-10884819D02*
X17604762Y-10932438D01*
X17604762Y-10932438D02*
X17652381Y-10980057D01*
D11*
X37549600Y-67736434D02*
X37622933Y-67550720D01*
X37622933Y-67550720D02*
X37622933Y-67241196D01*
X37622933Y-67241196D02*
X37549600Y-67117387D01*
X37549600Y-67117387D02*
X37476266Y-67055482D01*
X37476266Y-67055482D02*
X37329600Y-66993577D01*
X37329600Y-66993577D02*
X37182933Y-66993577D01*
X37182933Y-66993577D02*
X37036266Y-67055482D01*
X37036266Y-67055482D02*
X36962933Y-67117387D01*
X36962933Y-67117387D02*
X36889600Y-67241196D01*
X36889600Y-67241196D02*
X36816266Y-67488815D01*
X36816266Y-67488815D02*
X36742933Y-67612625D01*
X36742933Y-67612625D02*
X36669600Y-67674530D01*
X36669600Y-67674530D02*
X36522933Y-67736434D01*
X36522933Y-67736434D02*
X36376266Y-67736434D01*
X36376266Y-67736434D02*
X36229600Y-67674530D01*
X36229600Y-67674530D02*
X36156266Y-67612625D01*
X36156266Y-67612625D02*
X36082933Y-67488815D01*
X36082933Y-67488815D02*
X36082933Y-67179292D01*
X36082933Y-67179292D02*
X36156266Y-66993577D01*
X37476266Y-65693578D02*
X37549600Y-65755482D01*
X37549600Y-65755482D02*
X37622933Y-65941197D01*
X37622933Y-65941197D02*
X37622933Y-66065006D01*
X37622933Y-66065006D02*
X37549600Y-66250720D01*
X37549600Y-66250720D02*
X37402933Y-66374530D01*
X37402933Y-66374530D02*
X37256266Y-66436435D01*
X37256266Y-66436435D02*
X36962933Y-66498339D01*
X36962933Y-66498339D02*
X36742933Y-66498339D01*
X36742933Y-66498339D02*
X36449600Y-66436435D01*
X36449600Y-66436435D02*
X36302933Y-66374530D01*
X36302933Y-66374530D02*
X36156266Y-66250720D01*
X36156266Y-66250720D02*
X36082933Y-66065006D01*
X36082933Y-66065006D02*
X36082933Y-65941197D01*
X36082933Y-65941197D02*
X36156266Y-65755482D01*
X36156266Y-65755482D02*
X36229600Y-65693578D01*
X37622933Y-64517387D02*
X37622933Y-65136435D01*
X37622933Y-65136435D02*
X36082933Y-65136435D01*
X38635666Y-67365006D02*
X38562333Y-67488816D01*
X38562333Y-67488816D02*
X38562333Y-67674530D01*
X38562333Y-67674530D02*
X38635666Y-67860244D01*
X38635666Y-67860244D02*
X38782333Y-67984054D01*
X38782333Y-67984054D02*
X38929000Y-68045959D01*
X38929000Y-68045959D02*
X39222333Y-68107863D01*
X39222333Y-68107863D02*
X39442333Y-68107863D01*
X39442333Y-68107863D02*
X39735666Y-68045959D01*
X39735666Y-68045959D02*
X39882333Y-67984054D01*
X39882333Y-67984054D02*
X40029000Y-67860244D01*
X40029000Y-67860244D02*
X40102333Y-67674530D01*
X40102333Y-67674530D02*
X40102333Y-67550721D01*
X40102333Y-67550721D02*
X40029000Y-67365006D01*
X40029000Y-67365006D02*
X39955666Y-67303102D01*
X39955666Y-67303102D02*
X39442333Y-67303102D01*
X39442333Y-67303102D02*
X39442333Y-67550721D01*
X40102333Y-66745959D02*
X38562333Y-66745959D01*
X38562333Y-66745959D02*
X40102333Y-66003102D01*
X40102333Y-66003102D02*
X38562333Y-66003102D01*
X40102333Y-65384054D02*
X38562333Y-65384054D01*
X38562333Y-65384054D02*
X38562333Y-65074530D01*
X38562333Y-65074530D02*
X38635666Y-64888816D01*
X38635666Y-64888816D02*
X38782333Y-64765006D01*
X38782333Y-64765006D02*
X38929000Y-64703101D01*
X38929000Y-64703101D02*
X39222333Y-64641197D01*
X39222333Y-64641197D02*
X39442333Y-64641197D01*
X39442333Y-64641197D02*
X39735666Y-64703101D01*
X39735666Y-64703101D02*
X39882333Y-64765006D01*
X39882333Y-64765006D02*
X40029000Y-64888816D01*
X40029000Y-64888816D02*
X40102333Y-65074530D01*
X40102333Y-65074530D02*
X40102333Y-65384054D01*
X42508400Y-67798339D02*
X42581733Y-67612625D01*
X42581733Y-67612625D02*
X42581733Y-67303101D01*
X42581733Y-67303101D02*
X42508400Y-67179292D01*
X42508400Y-67179292D02*
X42435066Y-67117387D01*
X42435066Y-67117387D02*
X42288400Y-67055482D01*
X42288400Y-67055482D02*
X42141733Y-67055482D01*
X42141733Y-67055482D02*
X41995066Y-67117387D01*
X41995066Y-67117387D02*
X41921733Y-67179292D01*
X41921733Y-67179292D02*
X41848400Y-67303101D01*
X41848400Y-67303101D02*
X41775066Y-67550720D01*
X41775066Y-67550720D02*
X41701733Y-67674530D01*
X41701733Y-67674530D02*
X41628400Y-67736435D01*
X41628400Y-67736435D02*
X41481733Y-67798339D01*
X41481733Y-67798339D02*
X41335066Y-67798339D01*
X41335066Y-67798339D02*
X41188400Y-67736435D01*
X41188400Y-67736435D02*
X41115066Y-67674530D01*
X41115066Y-67674530D02*
X41041733Y-67550720D01*
X41041733Y-67550720D02*
X41041733Y-67241197D01*
X41041733Y-67241197D02*
X41115066Y-67055482D01*
X42581733Y-66498340D02*
X41041733Y-66498340D01*
X41041733Y-66498340D02*
X41041733Y-66188816D01*
X41041733Y-66188816D02*
X41115066Y-66003102D01*
X41115066Y-66003102D02*
X41261733Y-65879292D01*
X41261733Y-65879292D02*
X41408400Y-65817387D01*
X41408400Y-65817387D02*
X41701733Y-65755483D01*
X41701733Y-65755483D02*
X41921733Y-65755483D01*
X41921733Y-65755483D02*
X42215066Y-65817387D01*
X42215066Y-65817387D02*
X42361733Y-65879292D01*
X42361733Y-65879292D02*
X42508400Y-66003102D01*
X42508400Y-66003102D02*
X42581733Y-66188816D01*
X42581733Y-66188816D02*
X42581733Y-66498340D01*
X42141733Y-65260244D02*
X42141733Y-64641197D01*
X42581733Y-65384054D02*
X41041733Y-64950721D01*
X41041733Y-64950721D02*
X42581733Y-64517387D01*
X43521133Y-67798339D02*
X43521133Y-66993577D01*
X43521133Y-66993577D02*
X44107800Y-67426911D01*
X44107800Y-67426911D02*
X44107800Y-67241196D01*
X44107800Y-67241196D02*
X44181133Y-67117387D01*
X44181133Y-67117387D02*
X44254466Y-67055482D01*
X44254466Y-67055482D02*
X44401133Y-66993577D01*
X44401133Y-66993577D02*
X44767800Y-66993577D01*
X44767800Y-66993577D02*
X44914466Y-67055482D01*
X44914466Y-67055482D02*
X44987800Y-67117387D01*
X44987800Y-67117387D02*
X45061133Y-67241196D01*
X45061133Y-67241196D02*
X45061133Y-67612625D01*
X45061133Y-67612625D02*
X44987800Y-67736434D01*
X44987800Y-67736434D02*
X44914466Y-67798339D01*
X43521133Y-66622149D02*
X45061133Y-66188816D01*
X45061133Y-66188816D02*
X43521133Y-65755482D01*
X43521133Y-65445958D02*
X43521133Y-64641196D01*
X43521133Y-64641196D02*
X44107800Y-65074530D01*
X44107800Y-65074530D02*
X44107800Y-64888815D01*
X44107800Y-64888815D02*
X44181133Y-64765006D01*
X44181133Y-64765006D02*
X44254466Y-64703101D01*
X44254466Y-64703101D02*
X44401133Y-64641196D01*
X44401133Y-64641196D02*
X44767800Y-64641196D01*
X44767800Y-64641196D02*
X44914466Y-64703101D01*
X44914466Y-64703101D02*
X44987800Y-64765006D01*
X44987800Y-64765006D02*
X45061133Y-64888815D01*
X45061133Y-64888815D02*
X45061133Y-65260244D01*
X45061133Y-65260244D02*
X44987800Y-65384053D01*
X44987800Y-65384053D02*
X44914466Y-65445958D01*
D10*
X87071601Y-53506819D02*
X87690648Y-53506819D01*
X87690648Y-53506819D02*
X87357315Y-53887771D01*
X87357315Y-53887771D02*
X87500172Y-53887771D01*
X87500172Y-53887771D02*
X87595410Y-53935390D01*
X87595410Y-53935390D02*
X87643029Y-53983009D01*
X87643029Y-53983009D02*
X87690648Y-54078247D01*
X87690648Y-54078247D02*
X87690648Y-54316342D01*
X87690648Y-54316342D02*
X87643029Y-54411580D01*
X87643029Y-54411580D02*
X87595410Y-54459200D01*
X87595410Y-54459200D02*
X87500172Y-54506819D01*
X87500172Y-54506819D02*
X87214458Y-54506819D01*
X87214458Y-54506819D02*
X87119220Y-54459200D01*
X87119220Y-54459200D02*
X87071601Y-54411580D01*
X87976363Y-53506819D02*
X88309696Y-54506819D01*
X88309696Y-54506819D02*
X88643029Y-53506819D01*
X88881125Y-53506819D02*
X89500172Y-53506819D01*
X89500172Y-53506819D02*
X89166839Y-53887771D01*
X89166839Y-53887771D02*
X89309696Y-53887771D01*
X89309696Y-53887771D02*
X89404934Y-53935390D01*
X89404934Y-53935390D02*
X89452553Y-53983009D01*
X89452553Y-53983009D02*
X89500172Y-54078247D01*
X89500172Y-54078247D02*
X89500172Y-54316342D01*
X89500172Y-54316342D02*
X89452553Y-54411580D01*
X89452553Y-54411580D02*
X89404934Y-54459200D01*
X89404934Y-54459200D02*
X89309696Y-54506819D01*
X89309696Y-54506819D02*
X89023982Y-54506819D01*
X89023982Y-54506819D02*
X88928744Y-54459200D01*
X88928744Y-54459200D02*
X88881125Y-54411580D01*
X91214458Y-54506819D02*
X90643030Y-54506819D01*
X90928744Y-54506819D02*
X90928744Y-53506819D01*
X90928744Y-53506819D02*
X90833506Y-53649676D01*
X90833506Y-53649676D02*
X90738268Y-53744914D01*
X90738268Y-53744914D02*
X90643030Y-53792533D01*
X91833506Y-53506819D02*
X91928744Y-53506819D01*
X91928744Y-53506819D02*
X92023982Y-53554438D01*
X92023982Y-53554438D02*
X92071601Y-53602057D01*
X92071601Y-53602057D02*
X92119220Y-53697295D01*
X92119220Y-53697295D02*
X92166839Y-53887771D01*
X92166839Y-53887771D02*
X92166839Y-54125866D01*
X92166839Y-54125866D02*
X92119220Y-54316342D01*
X92119220Y-54316342D02*
X92071601Y-54411580D01*
X92071601Y-54411580D02*
X92023982Y-54459200D01*
X92023982Y-54459200D02*
X91928744Y-54506819D01*
X91928744Y-54506819D02*
X91833506Y-54506819D01*
X91833506Y-54506819D02*
X91738268Y-54459200D01*
X91738268Y-54459200D02*
X91690649Y-54411580D01*
X91690649Y-54411580D02*
X91643030Y-54316342D01*
X91643030Y-54316342D02*
X91595411Y-54125866D01*
X91595411Y-54125866D02*
X91595411Y-53887771D01*
X91595411Y-53887771D02*
X91643030Y-53697295D01*
X91643030Y-53697295D02*
X91690649Y-53602057D01*
X91690649Y-53602057D02*
X91738268Y-53554438D01*
X91738268Y-53554438D02*
X91833506Y-53506819D01*
X85214458Y-55164438D02*
X85119220Y-55116819D01*
X85119220Y-55116819D02*
X84976363Y-55116819D01*
X84976363Y-55116819D02*
X84833506Y-55164438D01*
X84833506Y-55164438D02*
X84738268Y-55259676D01*
X84738268Y-55259676D02*
X84690649Y-55354914D01*
X84690649Y-55354914D02*
X84643030Y-55545390D01*
X84643030Y-55545390D02*
X84643030Y-55688247D01*
X84643030Y-55688247D02*
X84690649Y-55878723D01*
X84690649Y-55878723D02*
X84738268Y-55973961D01*
X84738268Y-55973961D02*
X84833506Y-56069200D01*
X84833506Y-56069200D02*
X84976363Y-56116819D01*
X84976363Y-56116819D02*
X85071601Y-56116819D01*
X85071601Y-56116819D02*
X85214458Y-56069200D01*
X85214458Y-56069200D02*
X85262077Y-56021580D01*
X85262077Y-56021580D02*
X85262077Y-55688247D01*
X85262077Y-55688247D02*
X85071601Y-55688247D01*
X85690649Y-56116819D02*
X85690649Y-55116819D01*
X85690649Y-55116819D02*
X86071601Y-55116819D01*
X86071601Y-55116819D02*
X86166839Y-55164438D01*
X86166839Y-55164438D02*
X86214458Y-55212057D01*
X86214458Y-55212057D02*
X86262077Y-55307295D01*
X86262077Y-55307295D02*
X86262077Y-55450152D01*
X86262077Y-55450152D02*
X86214458Y-55545390D01*
X86214458Y-55545390D02*
X86166839Y-55593009D01*
X86166839Y-55593009D02*
X86071601Y-55640628D01*
X86071601Y-55640628D02*
X85690649Y-55640628D01*
X86690649Y-56116819D02*
X86690649Y-55116819D01*
X87357315Y-55116819D02*
X87547791Y-55116819D01*
X87547791Y-55116819D02*
X87643029Y-55164438D01*
X87643029Y-55164438D02*
X87738267Y-55259676D01*
X87738267Y-55259676D02*
X87785886Y-55450152D01*
X87785886Y-55450152D02*
X87785886Y-55783485D01*
X87785886Y-55783485D02*
X87738267Y-55973961D01*
X87738267Y-55973961D02*
X87643029Y-56069200D01*
X87643029Y-56069200D02*
X87547791Y-56116819D01*
X87547791Y-56116819D02*
X87357315Y-56116819D01*
X87357315Y-56116819D02*
X87262077Y-56069200D01*
X87262077Y-56069200D02*
X87166839Y-55973961D01*
X87166839Y-55973961D02*
X87119220Y-55783485D01*
X87119220Y-55783485D02*
X87119220Y-55450152D01*
X87119220Y-55450152D02*
X87166839Y-55259676D01*
X87166839Y-55259676D02*
X87262077Y-55164438D01*
X87262077Y-55164438D02*
X87357315Y-55116819D01*
X88119220Y-55116819D02*
X88738267Y-55116819D01*
X88738267Y-55116819D02*
X88404934Y-55497771D01*
X88404934Y-55497771D02*
X88547791Y-55497771D01*
X88547791Y-55497771D02*
X88643029Y-55545390D01*
X88643029Y-55545390D02*
X88690648Y-55593009D01*
X88690648Y-55593009D02*
X88738267Y-55688247D01*
X88738267Y-55688247D02*
X88738267Y-55926342D01*
X88738267Y-55926342D02*
X88690648Y-56021580D01*
X88690648Y-56021580D02*
X88643029Y-56069200D01*
X88643029Y-56069200D02*
X88547791Y-56116819D01*
X88547791Y-56116819D02*
X88262077Y-56116819D01*
X88262077Y-56116819D02*
X88166839Y-56069200D01*
X88166839Y-56069200D02*
X88119220Y-56021580D01*
X89071601Y-55116819D02*
X89738267Y-55116819D01*
X89738267Y-55116819D02*
X89309696Y-56116819D01*
X91690649Y-56116819D02*
X91881125Y-56116819D01*
X91881125Y-56116819D02*
X91976363Y-56069200D01*
X91976363Y-56069200D02*
X92023982Y-56021580D01*
X92023982Y-56021580D02*
X92119220Y-55878723D01*
X92119220Y-55878723D02*
X92166839Y-55688247D01*
X92166839Y-55688247D02*
X92166839Y-55307295D01*
X92166839Y-55307295D02*
X92119220Y-55212057D01*
X92119220Y-55212057D02*
X92071601Y-55164438D01*
X92071601Y-55164438D02*
X91976363Y-55116819D01*
X91976363Y-55116819D02*
X91785887Y-55116819D01*
X91785887Y-55116819D02*
X91690649Y-55164438D01*
X91690649Y-55164438D02*
X91643030Y-55212057D01*
X91643030Y-55212057D02*
X91595411Y-55307295D01*
X91595411Y-55307295D02*
X91595411Y-55545390D01*
X91595411Y-55545390D02*
X91643030Y-55640628D01*
X91643030Y-55640628D02*
X91690649Y-55688247D01*
X91690649Y-55688247D02*
X91785887Y-55735866D01*
X91785887Y-55735866D02*
X91976363Y-55735866D01*
X91976363Y-55735866D02*
X92071601Y-55688247D01*
X92071601Y-55688247D02*
X92119220Y-55640628D01*
X92119220Y-55640628D02*
X92166839Y-55545390D01*
X85214458Y-56774438D02*
X85119220Y-56726819D01*
X85119220Y-56726819D02*
X84976363Y-56726819D01*
X84976363Y-56726819D02*
X84833506Y-56774438D01*
X84833506Y-56774438D02*
X84738268Y-56869676D01*
X84738268Y-56869676D02*
X84690649Y-56964914D01*
X84690649Y-56964914D02*
X84643030Y-57155390D01*
X84643030Y-57155390D02*
X84643030Y-57298247D01*
X84643030Y-57298247D02*
X84690649Y-57488723D01*
X84690649Y-57488723D02*
X84738268Y-57583961D01*
X84738268Y-57583961D02*
X84833506Y-57679200D01*
X84833506Y-57679200D02*
X84976363Y-57726819D01*
X84976363Y-57726819D02*
X85071601Y-57726819D01*
X85071601Y-57726819D02*
X85214458Y-57679200D01*
X85214458Y-57679200D02*
X85262077Y-57631580D01*
X85262077Y-57631580D02*
X85262077Y-57298247D01*
X85262077Y-57298247D02*
X85071601Y-57298247D01*
X85690649Y-57726819D02*
X85690649Y-56726819D01*
X85690649Y-56726819D02*
X86071601Y-56726819D01*
X86071601Y-56726819D02*
X86166839Y-56774438D01*
X86166839Y-56774438D02*
X86214458Y-56822057D01*
X86214458Y-56822057D02*
X86262077Y-56917295D01*
X86262077Y-56917295D02*
X86262077Y-57060152D01*
X86262077Y-57060152D02*
X86214458Y-57155390D01*
X86214458Y-57155390D02*
X86166839Y-57203009D01*
X86166839Y-57203009D02*
X86071601Y-57250628D01*
X86071601Y-57250628D02*
X85690649Y-57250628D01*
X86690649Y-57726819D02*
X86690649Y-56726819D01*
X87357315Y-56726819D02*
X87547791Y-56726819D01*
X87547791Y-56726819D02*
X87643029Y-56774438D01*
X87643029Y-56774438D02*
X87738267Y-56869676D01*
X87738267Y-56869676D02*
X87785886Y-57060152D01*
X87785886Y-57060152D02*
X87785886Y-57393485D01*
X87785886Y-57393485D02*
X87738267Y-57583961D01*
X87738267Y-57583961D02*
X87643029Y-57679200D01*
X87643029Y-57679200D02*
X87547791Y-57726819D01*
X87547791Y-57726819D02*
X87357315Y-57726819D01*
X87357315Y-57726819D02*
X87262077Y-57679200D01*
X87262077Y-57679200D02*
X87166839Y-57583961D01*
X87166839Y-57583961D02*
X87119220Y-57393485D01*
X87119220Y-57393485D02*
X87119220Y-57060152D01*
X87119220Y-57060152D02*
X87166839Y-56869676D01*
X87166839Y-56869676D02*
X87262077Y-56774438D01*
X87262077Y-56774438D02*
X87357315Y-56726819D01*
X88119220Y-56726819D02*
X88738267Y-56726819D01*
X88738267Y-56726819D02*
X88404934Y-57107771D01*
X88404934Y-57107771D02*
X88547791Y-57107771D01*
X88547791Y-57107771D02*
X88643029Y-57155390D01*
X88643029Y-57155390D02*
X88690648Y-57203009D01*
X88690648Y-57203009D02*
X88738267Y-57298247D01*
X88738267Y-57298247D02*
X88738267Y-57536342D01*
X88738267Y-57536342D02*
X88690648Y-57631580D01*
X88690648Y-57631580D02*
X88643029Y-57679200D01*
X88643029Y-57679200D02*
X88547791Y-57726819D01*
X88547791Y-57726819D02*
X88262077Y-57726819D01*
X88262077Y-57726819D02*
X88166839Y-57679200D01*
X88166839Y-57679200D02*
X88119220Y-57631580D01*
X89595410Y-56726819D02*
X89404934Y-56726819D01*
X89404934Y-56726819D02*
X89309696Y-56774438D01*
X89309696Y-56774438D02*
X89262077Y-56822057D01*
X89262077Y-56822057D02*
X89166839Y-56964914D01*
X89166839Y-56964914D02*
X89119220Y-57155390D01*
X89119220Y-57155390D02*
X89119220Y-57536342D01*
X89119220Y-57536342D02*
X89166839Y-57631580D01*
X89166839Y-57631580D02*
X89214458Y-57679200D01*
X89214458Y-57679200D02*
X89309696Y-57726819D01*
X89309696Y-57726819D02*
X89500172Y-57726819D01*
X89500172Y-57726819D02*
X89595410Y-57679200D01*
X89595410Y-57679200D02*
X89643029Y-57631580D01*
X89643029Y-57631580D02*
X89690648Y-57536342D01*
X89690648Y-57536342D02*
X89690648Y-57298247D01*
X89690648Y-57298247D02*
X89643029Y-57203009D01*
X89643029Y-57203009D02*
X89595410Y-57155390D01*
X89595410Y-57155390D02*
X89500172Y-57107771D01*
X89500172Y-57107771D02*
X89309696Y-57107771D01*
X89309696Y-57107771D02*
X89214458Y-57155390D01*
X89214458Y-57155390D02*
X89166839Y-57203009D01*
X89166839Y-57203009D02*
X89119220Y-57298247D01*
X91785887Y-57155390D02*
X91690649Y-57107771D01*
X91690649Y-57107771D02*
X91643030Y-57060152D01*
X91643030Y-57060152D02*
X91595411Y-56964914D01*
X91595411Y-56964914D02*
X91595411Y-56917295D01*
X91595411Y-56917295D02*
X91643030Y-56822057D01*
X91643030Y-56822057D02*
X91690649Y-56774438D01*
X91690649Y-56774438D02*
X91785887Y-56726819D01*
X91785887Y-56726819D02*
X91976363Y-56726819D01*
X91976363Y-56726819D02*
X92071601Y-56774438D01*
X92071601Y-56774438D02*
X92119220Y-56822057D01*
X92119220Y-56822057D02*
X92166839Y-56917295D01*
X92166839Y-56917295D02*
X92166839Y-56964914D01*
X92166839Y-56964914D02*
X92119220Y-57060152D01*
X92119220Y-57060152D02*
X92071601Y-57107771D01*
X92071601Y-57107771D02*
X91976363Y-57155390D01*
X91976363Y-57155390D02*
X91785887Y-57155390D01*
X91785887Y-57155390D02*
X91690649Y-57203009D01*
X91690649Y-57203009D02*
X91643030Y-57250628D01*
X91643030Y-57250628D02*
X91595411Y-57345866D01*
X91595411Y-57345866D02*
X91595411Y-57536342D01*
X91595411Y-57536342D02*
X91643030Y-57631580D01*
X91643030Y-57631580D02*
X91690649Y-57679200D01*
X91690649Y-57679200D02*
X91785887Y-57726819D01*
X91785887Y-57726819D02*
X91976363Y-57726819D01*
X91976363Y-57726819D02*
X92071601Y-57679200D01*
X92071601Y-57679200D02*
X92119220Y-57631580D01*
X92119220Y-57631580D02*
X92166839Y-57536342D01*
X92166839Y-57536342D02*
X92166839Y-57345866D01*
X92166839Y-57345866D02*
X92119220Y-57250628D01*
X92119220Y-57250628D02*
X92071601Y-57203009D01*
X92071601Y-57203009D02*
X91976363Y-57155390D01*
X85214458Y-58384438D02*
X85119220Y-58336819D01*
X85119220Y-58336819D02*
X84976363Y-58336819D01*
X84976363Y-58336819D02*
X84833506Y-58384438D01*
X84833506Y-58384438D02*
X84738268Y-58479676D01*
X84738268Y-58479676D02*
X84690649Y-58574914D01*
X84690649Y-58574914D02*
X84643030Y-58765390D01*
X84643030Y-58765390D02*
X84643030Y-58908247D01*
X84643030Y-58908247D02*
X84690649Y-59098723D01*
X84690649Y-59098723D02*
X84738268Y-59193961D01*
X84738268Y-59193961D02*
X84833506Y-59289200D01*
X84833506Y-59289200D02*
X84976363Y-59336819D01*
X84976363Y-59336819D02*
X85071601Y-59336819D01*
X85071601Y-59336819D02*
X85214458Y-59289200D01*
X85214458Y-59289200D02*
X85262077Y-59241580D01*
X85262077Y-59241580D02*
X85262077Y-58908247D01*
X85262077Y-58908247D02*
X85071601Y-58908247D01*
X85690649Y-59336819D02*
X85690649Y-58336819D01*
X85690649Y-58336819D02*
X86071601Y-58336819D01*
X86071601Y-58336819D02*
X86166839Y-58384438D01*
X86166839Y-58384438D02*
X86214458Y-58432057D01*
X86214458Y-58432057D02*
X86262077Y-58527295D01*
X86262077Y-58527295D02*
X86262077Y-58670152D01*
X86262077Y-58670152D02*
X86214458Y-58765390D01*
X86214458Y-58765390D02*
X86166839Y-58813009D01*
X86166839Y-58813009D02*
X86071601Y-58860628D01*
X86071601Y-58860628D02*
X85690649Y-58860628D01*
X86690649Y-59336819D02*
X86690649Y-58336819D01*
X87357315Y-58336819D02*
X87547791Y-58336819D01*
X87547791Y-58336819D02*
X87643029Y-58384438D01*
X87643029Y-58384438D02*
X87738267Y-58479676D01*
X87738267Y-58479676D02*
X87785886Y-58670152D01*
X87785886Y-58670152D02*
X87785886Y-59003485D01*
X87785886Y-59003485D02*
X87738267Y-59193961D01*
X87738267Y-59193961D02*
X87643029Y-59289200D01*
X87643029Y-59289200D02*
X87547791Y-59336819D01*
X87547791Y-59336819D02*
X87357315Y-59336819D01*
X87357315Y-59336819D02*
X87262077Y-59289200D01*
X87262077Y-59289200D02*
X87166839Y-59193961D01*
X87166839Y-59193961D02*
X87119220Y-59003485D01*
X87119220Y-59003485D02*
X87119220Y-58670152D01*
X87119220Y-58670152D02*
X87166839Y-58479676D01*
X87166839Y-58479676D02*
X87262077Y-58384438D01*
X87262077Y-58384438D02*
X87357315Y-58336819D01*
X88119220Y-58336819D02*
X88738267Y-58336819D01*
X88738267Y-58336819D02*
X88404934Y-58717771D01*
X88404934Y-58717771D02*
X88547791Y-58717771D01*
X88547791Y-58717771D02*
X88643029Y-58765390D01*
X88643029Y-58765390D02*
X88690648Y-58813009D01*
X88690648Y-58813009D02*
X88738267Y-58908247D01*
X88738267Y-58908247D02*
X88738267Y-59146342D01*
X88738267Y-59146342D02*
X88690648Y-59241580D01*
X88690648Y-59241580D02*
X88643029Y-59289200D01*
X88643029Y-59289200D02*
X88547791Y-59336819D01*
X88547791Y-59336819D02*
X88262077Y-59336819D01*
X88262077Y-59336819D02*
X88166839Y-59289200D01*
X88166839Y-59289200D02*
X88119220Y-59241580D01*
X89643029Y-58336819D02*
X89166839Y-58336819D01*
X89166839Y-58336819D02*
X89119220Y-58813009D01*
X89119220Y-58813009D02*
X89166839Y-58765390D01*
X89166839Y-58765390D02*
X89262077Y-58717771D01*
X89262077Y-58717771D02*
X89500172Y-58717771D01*
X89500172Y-58717771D02*
X89595410Y-58765390D01*
X89595410Y-58765390D02*
X89643029Y-58813009D01*
X89643029Y-58813009D02*
X89690648Y-58908247D01*
X89690648Y-58908247D02*
X89690648Y-59146342D01*
X89690648Y-59146342D02*
X89643029Y-59241580D01*
X89643029Y-59241580D02*
X89595410Y-59289200D01*
X89595410Y-59289200D02*
X89500172Y-59336819D01*
X89500172Y-59336819D02*
X89262077Y-59336819D01*
X89262077Y-59336819D02*
X89166839Y-59289200D01*
X89166839Y-59289200D02*
X89119220Y-59241580D01*
X91547792Y-58336819D02*
X92214458Y-58336819D01*
X92214458Y-58336819D02*
X91785887Y-59336819D01*
X85214458Y-59994438D02*
X85119220Y-59946819D01*
X85119220Y-59946819D02*
X84976363Y-59946819D01*
X84976363Y-59946819D02*
X84833506Y-59994438D01*
X84833506Y-59994438D02*
X84738268Y-60089676D01*
X84738268Y-60089676D02*
X84690649Y-60184914D01*
X84690649Y-60184914D02*
X84643030Y-60375390D01*
X84643030Y-60375390D02*
X84643030Y-60518247D01*
X84643030Y-60518247D02*
X84690649Y-60708723D01*
X84690649Y-60708723D02*
X84738268Y-60803961D01*
X84738268Y-60803961D02*
X84833506Y-60899200D01*
X84833506Y-60899200D02*
X84976363Y-60946819D01*
X84976363Y-60946819D02*
X85071601Y-60946819D01*
X85071601Y-60946819D02*
X85214458Y-60899200D01*
X85214458Y-60899200D02*
X85262077Y-60851580D01*
X85262077Y-60851580D02*
X85262077Y-60518247D01*
X85262077Y-60518247D02*
X85071601Y-60518247D01*
X85690649Y-60946819D02*
X85690649Y-59946819D01*
X85690649Y-59946819D02*
X86071601Y-59946819D01*
X86071601Y-59946819D02*
X86166839Y-59994438D01*
X86166839Y-59994438D02*
X86214458Y-60042057D01*
X86214458Y-60042057D02*
X86262077Y-60137295D01*
X86262077Y-60137295D02*
X86262077Y-60280152D01*
X86262077Y-60280152D02*
X86214458Y-60375390D01*
X86214458Y-60375390D02*
X86166839Y-60423009D01*
X86166839Y-60423009D02*
X86071601Y-60470628D01*
X86071601Y-60470628D02*
X85690649Y-60470628D01*
X86690649Y-60946819D02*
X86690649Y-59946819D01*
X87357315Y-59946819D02*
X87547791Y-59946819D01*
X87547791Y-59946819D02*
X87643029Y-59994438D01*
X87643029Y-59994438D02*
X87738267Y-60089676D01*
X87738267Y-60089676D02*
X87785886Y-60280152D01*
X87785886Y-60280152D02*
X87785886Y-60613485D01*
X87785886Y-60613485D02*
X87738267Y-60803961D01*
X87738267Y-60803961D02*
X87643029Y-60899200D01*
X87643029Y-60899200D02*
X87547791Y-60946819D01*
X87547791Y-60946819D02*
X87357315Y-60946819D01*
X87357315Y-60946819D02*
X87262077Y-60899200D01*
X87262077Y-60899200D02*
X87166839Y-60803961D01*
X87166839Y-60803961D02*
X87119220Y-60613485D01*
X87119220Y-60613485D02*
X87119220Y-60280152D01*
X87119220Y-60280152D02*
X87166839Y-60089676D01*
X87166839Y-60089676D02*
X87262077Y-59994438D01*
X87262077Y-59994438D02*
X87357315Y-59946819D01*
X88738267Y-60946819D02*
X88166839Y-60946819D01*
X88452553Y-60946819D02*
X88452553Y-59946819D01*
X88452553Y-59946819D02*
X88357315Y-60089676D01*
X88357315Y-60089676D02*
X88262077Y-60184914D01*
X88262077Y-60184914D02*
X88166839Y-60232533D01*
X89595410Y-60280152D02*
X89595410Y-60946819D01*
X89357315Y-59899200D02*
X89119220Y-60613485D01*
X89119220Y-60613485D02*
X89738267Y-60613485D01*
X92071601Y-59946819D02*
X91881125Y-59946819D01*
X91881125Y-59946819D02*
X91785887Y-59994438D01*
X91785887Y-59994438D02*
X91738268Y-60042057D01*
X91738268Y-60042057D02*
X91643030Y-60184914D01*
X91643030Y-60184914D02*
X91595411Y-60375390D01*
X91595411Y-60375390D02*
X91595411Y-60756342D01*
X91595411Y-60756342D02*
X91643030Y-60851580D01*
X91643030Y-60851580D02*
X91690649Y-60899200D01*
X91690649Y-60899200D02*
X91785887Y-60946819D01*
X91785887Y-60946819D02*
X91976363Y-60946819D01*
X91976363Y-60946819D02*
X92071601Y-60899200D01*
X92071601Y-60899200D02*
X92119220Y-60851580D01*
X92119220Y-60851580D02*
X92166839Y-60756342D01*
X92166839Y-60756342D02*
X92166839Y-60518247D01*
X92166839Y-60518247D02*
X92119220Y-60423009D01*
X92119220Y-60423009D02*
X92071601Y-60375390D01*
X92071601Y-60375390D02*
X91976363Y-60327771D01*
X91976363Y-60327771D02*
X91785887Y-60327771D01*
X91785887Y-60327771D02*
X91690649Y-60375390D01*
X91690649Y-60375390D02*
X91643030Y-60423009D01*
X91643030Y-60423009D02*
X91595411Y-60518247D01*
X89452555Y-62461580D02*
X89500174Y-62509200D01*
X89500174Y-62509200D02*
X89452555Y-62556819D01*
X89452555Y-62556819D02*
X89404936Y-62509200D01*
X89404936Y-62509200D02*
X89452555Y-62461580D01*
X89452555Y-62461580D02*
X89452555Y-62556819D01*
X89928745Y-62461580D02*
X89976364Y-62509200D01*
X89976364Y-62509200D02*
X89928745Y-62556819D01*
X89928745Y-62556819D02*
X89881126Y-62509200D01*
X89881126Y-62509200D02*
X89928745Y-62461580D01*
X89928745Y-62461580D02*
X89928745Y-62556819D01*
X90404935Y-62461580D02*
X90452554Y-62509200D01*
X90452554Y-62509200D02*
X90404935Y-62556819D01*
X90404935Y-62556819D02*
X90357316Y-62509200D01*
X90357316Y-62509200D02*
X90404935Y-62461580D01*
X90404935Y-62461580D02*
X90404935Y-62556819D01*
X92119220Y-61556819D02*
X91643030Y-61556819D01*
X91643030Y-61556819D02*
X91595411Y-62033009D01*
X91595411Y-62033009D02*
X91643030Y-61985390D01*
X91643030Y-61985390D02*
X91738268Y-61937771D01*
X91738268Y-61937771D02*
X91976363Y-61937771D01*
X91976363Y-61937771D02*
X92071601Y-61985390D01*
X92071601Y-61985390D02*
X92119220Y-62033009D01*
X92119220Y-62033009D02*
X92166839Y-62128247D01*
X92166839Y-62128247D02*
X92166839Y-62366342D01*
X92166839Y-62366342D02*
X92119220Y-62461580D01*
X92119220Y-62461580D02*
X92071601Y-62509200D01*
X92071601Y-62509200D02*
X91976363Y-62556819D01*
X91976363Y-62556819D02*
X91738268Y-62556819D01*
X91738268Y-62556819D02*
X91643030Y-62509200D01*
X91643030Y-62509200D02*
X91595411Y-62461580D01*
X89452555Y-64071580D02*
X89500174Y-64119200D01*
X89500174Y-64119200D02*
X89452555Y-64166819D01*
X89452555Y-64166819D02*
X89404936Y-64119200D01*
X89404936Y-64119200D02*
X89452555Y-64071580D01*
X89452555Y-64071580D02*
X89452555Y-64166819D01*
X89928745Y-64071580D02*
X89976364Y-64119200D01*
X89976364Y-64119200D02*
X89928745Y-64166819D01*
X89928745Y-64166819D02*
X89881126Y-64119200D01*
X89881126Y-64119200D02*
X89928745Y-64071580D01*
X89928745Y-64071580D02*
X89928745Y-64166819D01*
X90404935Y-64071580D02*
X90452554Y-64119200D01*
X90452554Y-64119200D02*
X90404935Y-64166819D01*
X90404935Y-64166819D02*
X90357316Y-64119200D01*
X90357316Y-64119200D02*
X90404935Y-64071580D01*
X90404935Y-64071580D02*
X90404935Y-64166819D01*
X92071601Y-63500152D02*
X92071601Y-64166819D01*
X91833506Y-63119200D02*
X91595411Y-63833485D01*
X91595411Y-63833485D02*
X92214458Y-63833485D01*
X89452555Y-65681580D02*
X89500174Y-65729200D01*
X89500174Y-65729200D02*
X89452555Y-65776819D01*
X89452555Y-65776819D02*
X89404936Y-65729200D01*
X89404936Y-65729200D02*
X89452555Y-65681580D01*
X89452555Y-65681580D02*
X89452555Y-65776819D01*
X89928745Y-65681580D02*
X89976364Y-65729200D01*
X89976364Y-65729200D02*
X89928745Y-65776819D01*
X89928745Y-65776819D02*
X89881126Y-65729200D01*
X89881126Y-65729200D02*
X89928745Y-65681580D01*
X89928745Y-65681580D02*
X89928745Y-65776819D01*
X90404935Y-65681580D02*
X90452554Y-65729200D01*
X90452554Y-65729200D02*
X90404935Y-65776819D01*
X90404935Y-65776819D02*
X90357316Y-65729200D01*
X90357316Y-65729200D02*
X90404935Y-65681580D01*
X90404935Y-65681580D02*
X90404935Y-65776819D01*
X91547792Y-64776819D02*
X92166839Y-64776819D01*
X92166839Y-64776819D02*
X91833506Y-65157771D01*
X91833506Y-65157771D02*
X91976363Y-65157771D01*
X91976363Y-65157771D02*
X92071601Y-65205390D01*
X92071601Y-65205390D02*
X92119220Y-65253009D01*
X92119220Y-65253009D02*
X92166839Y-65348247D01*
X92166839Y-65348247D02*
X92166839Y-65586342D01*
X92166839Y-65586342D02*
X92119220Y-65681580D01*
X92119220Y-65681580D02*
X92071601Y-65729200D01*
X92071601Y-65729200D02*
X91976363Y-65776819D01*
X91976363Y-65776819D02*
X91690649Y-65776819D01*
X91690649Y-65776819D02*
X91595411Y-65729200D01*
X91595411Y-65729200D02*
X91547792Y-65681580D01*
X85214458Y-66434438D02*
X85119220Y-66386819D01*
X85119220Y-66386819D02*
X84976363Y-66386819D01*
X84976363Y-66386819D02*
X84833506Y-66434438D01*
X84833506Y-66434438D02*
X84738268Y-66529676D01*
X84738268Y-66529676D02*
X84690649Y-66624914D01*
X84690649Y-66624914D02*
X84643030Y-66815390D01*
X84643030Y-66815390D02*
X84643030Y-66958247D01*
X84643030Y-66958247D02*
X84690649Y-67148723D01*
X84690649Y-67148723D02*
X84738268Y-67243961D01*
X84738268Y-67243961D02*
X84833506Y-67339200D01*
X84833506Y-67339200D02*
X84976363Y-67386819D01*
X84976363Y-67386819D02*
X85071601Y-67386819D01*
X85071601Y-67386819D02*
X85214458Y-67339200D01*
X85214458Y-67339200D02*
X85262077Y-67291580D01*
X85262077Y-67291580D02*
X85262077Y-66958247D01*
X85262077Y-66958247D02*
X85071601Y-66958247D01*
X85690649Y-67386819D02*
X85690649Y-66386819D01*
X85690649Y-66386819D02*
X86071601Y-66386819D01*
X86071601Y-66386819D02*
X86166839Y-66434438D01*
X86166839Y-66434438D02*
X86214458Y-66482057D01*
X86214458Y-66482057D02*
X86262077Y-66577295D01*
X86262077Y-66577295D02*
X86262077Y-66720152D01*
X86262077Y-66720152D02*
X86214458Y-66815390D01*
X86214458Y-66815390D02*
X86166839Y-66863009D01*
X86166839Y-66863009D02*
X86071601Y-66910628D01*
X86071601Y-66910628D02*
X85690649Y-66910628D01*
X86690649Y-67386819D02*
X86690649Y-66386819D01*
X87357315Y-66386819D02*
X87547791Y-66386819D01*
X87547791Y-66386819D02*
X87643029Y-66434438D01*
X87643029Y-66434438D02*
X87738267Y-66529676D01*
X87738267Y-66529676D02*
X87785886Y-66720152D01*
X87785886Y-66720152D02*
X87785886Y-67053485D01*
X87785886Y-67053485D02*
X87738267Y-67243961D01*
X87738267Y-67243961D02*
X87643029Y-67339200D01*
X87643029Y-67339200D02*
X87547791Y-67386819D01*
X87547791Y-67386819D02*
X87357315Y-67386819D01*
X87357315Y-67386819D02*
X87262077Y-67339200D01*
X87262077Y-67339200D02*
X87166839Y-67243961D01*
X87166839Y-67243961D02*
X87119220Y-67053485D01*
X87119220Y-67053485D02*
X87119220Y-66720152D01*
X87119220Y-66720152D02*
X87166839Y-66529676D01*
X87166839Y-66529676D02*
X87262077Y-66434438D01*
X87262077Y-66434438D02*
X87357315Y-66386819D01*
X88738267Y-67386819D02*
X88166839Y-67386819D01*
X88452553Y-67386819D02*
X88452553Y-66386819D01*
X88452553Y-66386819D02*
X88357315Y-66529676D01*
X88357315Y-66529676D02*
X88262077Y-66624914D01*
X88262077Y-66624914D02*
X88166839Y-66672533D01*
X89357315Y-66386819D02*
X89452553Y-66386819D01*
X89452553Y-66386819D02*
X89547791Y-66434438D01*
X89547791Y-66434438D02*
X89595410Y-66482057D01*
X89595410Y-66482057D02*
X89643029Y-66577295D01*
X89643029Y-66577295D02*
X89690648Y-66767771D01*
X89690648Y-66767771D02*
X89690648Y-67005866D01*
X89690648Y-67005866D02*
X89643029Y-67196342D01*
X89643029Y-67196342D02*
X89595410Y-67291580D01*
X89595410Y-67291580D02*
X89547791Y-67339200D01*
X89547791Y-67339200D02*
X89452553Y-67386819D01*
X89452553Y-67386819D02*
X89357315Y-67386819D01*
X89357315Y-67386819D02*
X89262077Y-67339200D01*
X89262077Y-67339200D02*
X89214458Y-67291580D01*
X89214458Y-67291580D02*
X89166839Y-67196342D01*
X89166839Y-67196342D02*
X89119220Y-67005866D01*
X89119220Y-67005866D02*
X89119220Y-66767771D01*
X89119220Y-66767771D02*
X89166839Y-66577295D01*
X89166839Y-66577295D02*
X89214458Y-66482057D01*
X89214458Y-66482057D02*
X89262077Y-66434438D01*
X89262077Y-66434438D02*
X89357315Y-66386819D01*
X91595411Y-66482057D02*
X91643030Y-66434438D01*
X91643030Y-66434438D02*
X91738268Y-66386819D01*
X91738268Y-66386819D02*
X91976363Y-66386819D01*
X91976363Y-66386819D02*
X92071601Y-66434438D01*
X92071601Y-66434438D02*
X92119220Y-66482057D01*
X92119220Y-66482057D02*
X92166839Y-66577295D01*
X92166839Y-66577295D02*
X92166839Y-66672533D01*
X92166839Y-66672533D02*
X92119220Y-66815390D01*
X92119220Y-66815390D02*
X91547792Y-67386819D01*
X91547792Y-67386819D02*
X92166839Y-67386819D01*
X86071600Y-68044438D02*
X85976362Y-67996819D01*
X85976362Y-67996819D02*
X85833505Y-67996819D01*
X85833505Y-67996819D02*
X85690648Y-68044438D01*
X85690648Y-68044438D02*
X85595410Y-68139676D01*
X85595410Y-68139676D02*
X85547791Y-68234914D01*
X85547791Y-68234914D02*
X85500172Y-68425390D01*
X85500172Y-68425390D02*
X85500172Y-68568247D01*
X85500172Y-68568247D02*
X85547791Y-68758723D01*
X85547791Y-68758723D02*
X85595410Y-68853961D01*
X85595410Y-68853961D02*
X85690648Y-68949200D01*
X85690648Y-68949200D02*
X85833505Y-68996819D01*
X85833505Y-68996819D02*
X85928743Y-68996819D01*
X85928743Y-68996819D02*
X86071600Y-68949200D01*
X86071600Y-68949200D02*
X86119219Y-68901580D01*
X86119219Y-68901580D02*
X86119219Y-68568247D01*
X86119219Y-68568247D02*
X85928743Y-68568247D01*
X86547791Y-68996819D02*
X86547791Y-67996819D01*
X86547791Y-67996819D02*
X87119219Y-68996819D01*
X87119219Y-68996819D02*
X87119219Y-67996819D01*
X87595410Y-68996819D02*
X87595410Y-67996819D01*
X87595410Y-67996819D02*
X87833505Y-67996819D01*
X87833505Y-67996819D02*
X87976362Y-68044438D01*
X87976362Y-68044438D02*
X88071600Y-68139676D01*
X88071600Y-68139676D02*
X88119219Y-68234914D01*
X88119219Y-68234914D02*
X88166838Y-68425390D01*
X88166838Y-68425390D02*
X88166838Y-68568247D01*
X88166838Y-68568247D02*
X88119219Y-68758723D01*
X88119219Y-68758723D02*
X88071600Y-68853961D01*
X88071600Y-68853961D02*
X87976362Y-68949200D01*
X87976362Y-68949200D02*
X87833505Y-68996819D01*
X87833505Y-68996819D02*
X87595410Y-68996819D01*
X92166839Y-68996819D02*
X91595411Y-68996819D01*
X91881125Y-68996819D02*
X91881125Y-67996819D01*
X91881125Y-67996819D02*
X91785887Y-68139676D01*
X91785887Y-68139676D02*
X91690649Y-68234914D01*
X91690649Y-68234914D02*
X91595411Y-68282533D01*
D11*
X29557933Y-48888618D02*
X29557933Y-49507666D01*
X29557933Y-49507666D02*
X30291266Y-49569570D01*
X30291266Y-49569570D02*
X30217933Y-49507666D01*
X30217933Y-49507666D02*
X30144600Y-49383856D01*
X30144600Y-49383856D02*
X30144600Y-49074332D01*
X30144600Y-49074332D02*
X30217933Y-48950523D01*
X30217933Y-48950523D02*
X30291266Y-48888618D01*
X30291266Y-48888618D02*
X30437933Y-48826713D01*
X30437933Y-48826713D02*
X30804600Y-48826713D01*
X30804600Y-48826713D02*
X30951266Y-48888618D01*
X30951266Y-48888618D02*
X31024600Y-48950523D01*
X31024600Y-48950523D02*
X31097933Y-49074332D01*
X31097933Y-49074332D02*
X31097933Y-49383856D01*
X31097933Y-49383856D02*
X31024600Y-49507666D01*
X31024600Y-49507666D02*
X30951266Y-49569570D01*
X29557933Y-48455285D02*
X31097933Y-48021952D01*
X31097933Y-48021952D02*
X29557933Y-47588618D01*
X33504000Y-50219570D02*
X33577333Y-50033856D01*
X33577333Y-50033856D02*
X33577333Y-49724332D01*
X33577333Y-49724332D02*
X33504000Y-49600523D01*
X33504000Y-49600523D02*
X33430666Y-49538618D01*
X33430666Y-49538618D02*
X33284000Y-49476713D01*
X33284000Y-49476713D02*
X33137333Y-49476713D01*
X33137333Y-49476713D02*
X32990666Y-49538618D01*
X32990666Y-49538618D02*
X32917333Y-49600523D01*
X32917333Y-49600523D02*
X32844000Y-49724332D01*
X32844000Y-49724332D02*
X32770666Y-49971951D01*
X32770666Y-49971951D02*
X32697333Y-50095761D01*
X32697333Y-50095761D02*
X32624000Y-50157666D01*
X32624000Y-50157666D02*
X32477333Y-50219570D01*
X32477333Y-50219570D02*
X32330666Y-50219570D01*
X32330666Y-50219570D02*
X32184000Y-50157666D01*
X32184000Y-50157666D02*
X32110666Y-50095761D01*
X32110666Y-50095761D02*
X32037333Y-49971951D01*
X32037333Y-49971951D02*
X32037333Y-49662428D01*
X32037333Y-49662428D02*
X32110666Y-49476713D01*
X33577333Y-48919571D02*
X32037333Y-48919571D01*
X32037333Y-48919571D02*
X32037333Y-48610047D01*
X32037333Y-48610047D02*
X32110666Y-48424333D01*
X32110666Y-48424333D02*
X32257333Y-48300523D01*
X32257333Y-48300523D02*
X32404000Y-48238618D01*
X32404000Y-48238618D02*
X32697333Y-48176714D01*
X32697333Y-48176714D02*
X32917333Y-48176714D01*
X32917333Y-48176714D02*
X33210666Y-48238618D01*
X33210666Y-48238618D02*
X33357333Y-48300523D01*
X33357333Y-48300523D02*
X33504000Y-48424333D01*
X33504000Y-48424333D02*
X33577333Y-48610047D01*
X33577333Y-48610047D02*
X33577333Y-48919571D01*
X33137333Y-47681475D02*
X33137333Y-47062428D01*
X33577333Y-47805285D02*
X32037333Y-47371952D01*
X32037333Y-47371952D02*
X33577333Y-46938618D01*
X34590066Y-49631475D02*
X34516733Y-49755285D01*
X34516733Y-49755285D02*
X34516733Y-49940999D01*
X34516733Y-49940999D02*
X34590066Y-50126713D01*
X34590066Y-50126713D02*
X34736733Y-50250523D01*
X34736733Y-50250523D02*
X34883400Y-50312428D01*
X34883400Y-50312428D02*
X35176733Y-50374332D01*
X35176733Y-50374332D02*
X35396733Y-50374332D01*
X35396733Y-50374332D02*
X35690066Y-50312428D01*
X35690066Y-50312428D02*
X35836733Y-50250523D01*
X35836733Y-50250523D02*
X35983400Y-50126713D01*
X35983400Y-50126713D02*
X36056733Y-49940999D01*
X36056733Y-49940999D02*
X36056733Y-49817190D01*
X36056733Y-49817190D02*
X35983400Y-49631475D01*
X35983400Y-49631475D02*
X35910066Y-49569571D01*
X35910066Y-49569571D02*
X35396733Y-49569571D01*
X35396733Y-49569571D02*
X35396733Y-49817190D01*
X36056733Y-49012428D02*
X34516733Y-49012428D01*
X34516733Y-49012428D02*
X36056733Y-48269571D01*
X36056733Y-48269571D02*
X34516733Y-48269571D01*
X36056733Y-47650523D02*
X34516733Y-47650523D01*
X34516733Y-47650523D02*
X34516733Y-47340999D01*
X34516733Y-47340999D02*
X34590066Y-47155285D01*
X34590066Y-47155285D02*
X34736733Y-47031475D01*
X34736733Y-47031475D02*
X34883400Y-46969570D01*
X34883400Y-46969570D02*
X35176733Y-46907666D01*
X35176733Y-46907666D02*
X35396733Y-46907666D01*
X35396733Y-46907666D02*
X35690066Y-46969570D01*
X35690066Y-46969570D02*
X35836733Y-47031475D01*
X35836733Y-47031475D02*
X35983400Y-47155285D01*
X35983400Y-47155285D02*
X36056733Y-47340999D01*
X36056733Y-47340999D02*
X36056733Y-47650523D01*
X38462800Y-50188618D02*
X38536133Y-50002904D01*
X38536133Y-50002904D02*
X38536133Y-49693380D01*
X38536133Y-49693380D02*
X38462800Y-49569571D01*
X38462800Y-49569571D02*
X38389466Y-49507666D01*
X38389466Y-49507666D02*
X38242800Y-49445761D01*
X38242800Y-49445761D02*
X38096133Y-49445761D01*
X38096133Y-49445761D02*
X37949466Y-49507666D01*
X37949466Y-49507666D02*
X37876133Y-49569571D01*
X37876133Y-49569571D02*
X37802800Y-49693380D01*
X37802800Y-49693380D02*
X37729466Y-49940999D01*
X37729466Y-49940999D02*
X37656133Y-50064809D01*
X37656133Y-50064809D02*
X37582800Y-50126714D01*
X37582800Y-50126714D02*
X37436133Y-50188618D01*
X37436133Y-50188618D02*
X37289466Y-50188618D01*
X37289466Y-50188618D02*
X37142800Y-50126714D01*
X37142800Y-50126714D02*
X37069466Y-50064809D01*
X37069466Y-50064809D02*
X36996133Y-49940999D01*
X36996133Y-49940999D02*
X36996133Y-49631476D01*
X36996133Y-49631476D02*
X37069466Y-49445761D01*
X38389466Y-48145762D02*
X38462800Y-48207666D01*
X38462800Y-48207666D02*
X38536133Y-48393381D01*
X38536133Y-48393381D02*
X38536133Y-48517190D01*
X38536133Y-48517190D02*
X38462800Y-48702904D01*
X38462800Y-48702904D02*
X38316133Y-48826714D01*
X38316133Y-48826714D02*
X38169466Y-48888619D01*
X38169466Y-48888619D02*
X37876133Y-48950523D01*
X37876133Y-48950523D02*
X37656133Y-48950523D01*
X37656133Y-48950523D02*
X37362800Y-48888619D01*
X37362800Y-48888619D02*
X37216133Y-48826714D01*
X37216133Y-48826714D02*
X37069466Y-48702904D01*
X37069466Y-48702904D02*
X36996133Y-48517190D01*
X36996133Y-48517190D02*
X36996133Y-48393381D01*
X36996133Y-48393381D02*
X37069466Y-48207666D01*
X37069466Y-48207666D02*
X37142800Y-48145762D01*
X38536133Y-46969571D02*
X38536133Y-47588619D01*
X38536133Y-47588619D02*
X36996133Y-47588619D01*
D10*
X87685714Y-24584819D02*
X87685714Y-23584819D01*
X87685714Y-23584819D02*
X87923809Y-23584819D01*
X87923809Y-23584819D02*
X88066666Y-23632438D01*
X88066666Y-23632438D02*
X88161904Y-23727676D01*
X88161904Y-23727676D02*
X88209523Y-23822914D01*
X88209523Y-23822914D02*
X88257142Y-24013390D01*
X88257142Y-24013390D02*
X88257142Y-24156247D01*
X88257142Y-24156247D02*
X88209523Y-24346723D01*
X88209523Y-24346723D02*
X88161904Y-24441961D01*
X88161904Y-24441961D02*
X88066666Y-24537200D01*
X88066666Y-24537200D02*
X87923809Y-24584819D01*
X87923809Y-24584819D02*
X87685714Y-24584819D01*
X88638095Y-24537200D02*
X88780952Y-24584819D01*
X88780952Y-24584819D02*
X89019047Y-24584819D01*
X89019047Y-24584819D02*
X89114285Y-24537200D01*
X89114285Y-24537200D02*
X89161904Y-24489580D01*
X89161904Y-24489580D02*
X89209523Y-24394342D01*
X89209523Y-24394342D02*
X89209523Y-24299104D01*
X89209523Y-24299104D02*
X89161904Y-24203866D01*
X89161904Y-24203866D02*
X89114285Y-24156247D01*
X89114285Y-24156247D02*
X89019047Y-24108628D01*
X89019047Y-24108628D02*
X88828571Y-24061009D01*
X88828571Y-24061009D02*
X88733333Y-24013390D01*
X88733333Y-24013390D02*
X88685714Y-23965771D01*
X88685714Y-23965771D02*
X88638095Y-23870533D01*
X88638095Y-23870533D02*
X88638095Y-23775295D01*
X88638095Y-23775295D02*
X88685714Y-23680057D01*
X88685714Y-23680057D02*
X88733333Y-23632438D01*
X88733333Y-23632438D02*
X88828571Y-23584819D01*
X88828571Y-23584819D02*
X89066666Y-23584819D01*
X89066666Y-23584819D02*
X89209523Y-23632438D01*
X90066666Y-23918152D02*
X90066666Y-24584819D01*
X89828571Y-23537200D02*
X89590476Y-24251485D01*
X89590476Y-24251485D02*
X90209523Y-24251485D01*
X62285714Y-1724819D02*
X62285714Y-724819D01*
X62285714Y-724819D02*
X62523809Y-724819D01*
X62523809Y-724819D02*
X62666666Y-772438D01*
X62666666Y-772438D02*
X62761904Y-867676D01*
X62761904Y-867676D02*
X62809523Y-962914D01*
X62809523Y-962914D02*
X62857142Y-1153390D01*
X62857142Y-1153390D02*
X62857142Y-1296247D01*
X62857142Y-1296247D02*
X62809523Y-1486723D01*
X62809523Y-1486723D02*
X62761904Y-1581961D01*
X62761904Y-1581961D02*
X62666666Y-1677200D01*
X62666666Y-1677200D02*
X62523809Y-1724819D01*
X62523809Y-1724819D02*
X62285714Y-1724819D01*
X63238095Y-1677200D02*
X63380952Y-1724819D01*
X63380952Y-1724819D02*
X63619047Y-1724819D01*
X63619047Y-1724819D02*
X63714285Y-1677200D01*
X63714285Y-1677200D02*
X63761904Y-1629580D01*
X63761904Y-1629580D02*
X63809523Y-1534342D01*
X63809523Y-1534342D02*
X63809523Y-1439104D01*
X63809523Y-1439104D02*
X63761904Y-1343866D01*
X63761904Y-1343866D02*
X63714285Y-1296247D01*
X63714285Y-1296247D02*
X63619047Y-1248628D01*
X63619047Y-1248628D02*
X63428571Y-1201009D01*
X63428571Y-1201009D02*
X63333333Y-1153390D01*
X63333333Y-1153390D02*
X63285714Y-1105771D01*
X63285714Y-1105771D02*
X63238095Y-1010533D01*
X63238095Y-1010533D02*
X63238095Y-915295D01*
X63238095Y-915295D02*
X63285714Y-820057D01*
X63285714Y-820057D02*
X63333333Y-772438D01*
X63333333Y-772438D02*
X63428571Y-724819D01*
X63428571Y-724819D02*
X63666666Y-724819D01*
X63666666Y-724819D02*
X63809523Y-772438D01*
X64142857Y-724819D02*
X64809523Y-724819D01*
X64809523Y-724819D02*
X64380952Y-1724819D01*
X62285714Y-24584819D02*
X62285714Y-23584819D01*
X62285714Y-23584819D02*
X62523809Y-23584819D01*
X62523809Y-23584819D02*
X62666666Y-23632438D01*
X62666666Y-23632438D02*
X62761904Y-23727676D01*
X62761904Y-23727676D02*
X62809523Y-23822914D01*
X62809523Y-23822914D02*
X62857142Y-24013390D01*
X62857142Y-24013390D02*
X62857142Y-24156247D01*
X62857142Y-24156247D02*
X62809523Y-24346723D01*
X62809523Y-24346723D02*
X62761904Y-24441961D01*
X62761904Y-24441961D02*
X62666666Y-24537200D01*
X62666666Y-24537200D02*
X62523809Y-24584819D01*
X62523809Y-24584819D02*
X62285714Y-24584819D01*
X63238095Y-24537200D02*
X63380952Y-24584819D01*
X63380952Y-24584819D02*
X63619047Y-24584819D01*
X63619047Y-24584819D02*
X63714285Y-24537200D01*
X63714285Y-24537200D02*
X63761904Y-24489580D01*
X63761904Y-24489580D02*
X63809523Y-24394342D01*
X63809523Y-24394342D02*
X63809523Y-24299104D01*
X63809523Y-24299104D02*
X63761904Y-24203866D01*
X63761904Y-24203866D02*
X63714285Y-24156247D01*
X63714285Y-24156247D02*
X63619047Y-24108628D01*
X63619047Y-24108628D02*
X63428571Y-24061009D01*
X63428571Y-24061009D02*
X63333333Y-24013390D01*
X63333333Y-24013390D02*
X63285714Y-23965771D01*
X63285714Y-23965771D02*
X63238095Y-23870533D01*
X63238095Y-23870533D02*
X63238095Y-23775295D01*
X63238095Y-23775295D02*
X63285714Y-23680057D01*
X63285714Y-23680057D02*
X63333333Y-23632438D01*
X63333333Y-23632438D02*
X63428571Y-23584819D01*
X63428571Y-23584819D02*
X63666666Y-23584819D01*
X63666666Y-23584819D02*
X63809523Y-23632438D01*
X64142857Y-23584819D02*
X64761904Y-23584819D01*
X64761904Y-23584819D02*
X64428571Y-23965771D01*
X64428571Y-23965771D02*
X64571428Y-23965771D01*
X64571428Y-23965771D02*
X64666666Y-24013390D01*
X64666666Y-24013390D02*
X64714285Y-24061009D01*
X64714285Y-24061009D02*
X64761904Y-24156247D01*
X64761904Y-24156247D02*
X64761904Y-24394342D01*
X64761904Y-24394342D02*
X64714285Y-24489580D01*
X64714285Y-24489580D02*
X64666666Y-24537200D01*
X64666666Y-24537200D02*
X64571428Y-24584819D01*
X64571428Y-24584819D02*
X64285714Y-24584819D01*
X64285714Y-24584819D02*
X64190476Y-24537200D01*
X64190476Y-24537200D02*
X64142857Y-24489580D01*
X36885714Y-1724819D02*
X36885714Y-724819D01*
X36885714Y-724819D02*
X37123809Y-724819D01*
X37123809Y-724819D02*
X37266666Y-772438D01*
X37266666Y-772438D02*
X37361904Y-867676D01*
X37361904Y-867676D02*
X37409523Y-962914D01*
X37409523Y-962914D02*
X37457142Y-1153390D01*
X37457142Y-1153390D02*
X37457142Y-1296247D01*
X37457142Y-1296247D02*
X37409523Y-1486723D01*
X37409523Y-1486723D02*
X37361904Y-1581961D01*
X37361904Y-1581961D02*
X37266666Y-1677200D01*
X37266666Y-1677200D02*
X37123809Y-1724819D01*
X37123809Y-1724819D02*
X36885714Y-1724819D01*
X37838095Y-1677200D02*
X37980952Y-1724819D01*
X37980952Y-1724819D02*
X38219047Y-1724819D01*
X38219047Y-1724819D02*
X38314285Y-1677200D01*
X38314285Y-1677200D02*
X38361904Y-1629580D01*
X38361904Y-1629580D02*
X38409523Y-1534342D01*
X38409523Y-1534342D02*
X38409523Y-1439104D01*
X38409523Y-1439104D02*
X38361904Y-1343866D01*
X38361904Y-1343866D02*
X38314285Y-1296247D01*
X38314285Y-1296247D02*
X38219047Y-1248628D01*
X38219047Y-1248628D02*
X38028571Y-1201009D01*
X38028571Y-1201009D02*
X37933333Y-1153390D01*
X37933333Y-1153390D02*
X37885714Y-1105771D01*
X37885714Y-1105771D02*
X37838095Y-1010533D01*
X37838095Y-1010533D02*
X37838095Y-915295D01*
X37838095Y-915295D02*
X37885714Y-820057D01*
X37885714Y-820057D02*
X37933333Y-772438D01*
X37933333Y-772438D02*
X38028571Y-724819D01*
X38028571Y-724819D02*
X38266666Y-724819D01*
X38266666Y-724819D02*
X38409523Y-772438D01*
X39266666Y-724819D02*
X39076190Y-724819D01*
X39076190Y-724819D02*
X38980952Y-772438D01*
X38980952Y-772438D02*
X38933333Y-820057D01*
X38933333Y-820057D02*
X38838095Y-962914D01*
X38838095Y-962914D02*
X38790476Y-1153390D01*
X38790476Y-1153390D02*
X38790476Y-1534342D01*
X38790476Y-1534342D02*
X38838095Y-1629580D01*
X38838095Y-1629580D02*
X38885714Y-1677200D01*
X38885714Y-1677200D02*
X38980952Y-1724819D01*
X38980952Y-1724819D02*
X39171428Y-1724819D01*
X39171428Y-1724819D02*
X39266666Y-1677200D01*
X39266666Y-1677200D02*
X39314285Y-1629580D01*
X39314285Y-1629580D02*
X39361904Y-1534342D01*
X39361904Y-1534342D02*
X39361904Y-1296247D01*
X39361904Y-1296247D02*
X39314285Y-1201009D01*
X39314285Y-1201009D02*
X39266666Y-1153390D01*
X39266666Y-1153390D02*
X39171428Y-1105771D01*
X39171428Y-1105771D02*
X38980952Y-1105771D01*
X38980952Y-1105771D02*
X38885714Y-1153390D01*
X38885714Y-1153390D02*
X38838095Y-1201009D01*
X38838095Y-1201009D02*
X38790476Y-1296247D01*
X50687505Y-60872019D02*
X50687505Y-61681542D01*
X50687505Y-61681542D02*
X50735124Y-61776780D01*
X50735124Y-61776780D02*
X50782743Y-61824400D01*
X50782743Y-61824400D02*
X50877981Y-61872019D01*
X50877981Y-61872019D02*
X51068457Y-61872019D01*
X51068457Y-61872019D02*
X51163695Y-61824400D01*
X51163695Y-61824400D02*
X51211314Y-61776780D01*
X51211314Y-61776780D02*
X51258933Y-61681542D01*
X51258933Y-61681542D02*
X51258933Y-60872019D01*
X51687505Y-61824400D02*
X51830362Y-61872019D01*
X51830362Y-61872019D02*
X52068457Y-61872019D01*
X52068457Y-61872019D02*
X52163695Y-61824400D01*
X52163695Y-61824400D02*
X52211314Y-61776780D01*
X52211314Y-61776780D02*
X52258933Y-61681542D01*
X52258933Y-61681542D02*
X52258933Y-61586304D01*
X52258933Y-61586304D02*
X52211314Y-61491066D01*
X52211314Y-61491066D02*
X52163695Y-61443447D01*
X52163695Y-61443447D02*
X52068457Y-61395828D01*
X52068457Y-61395828D02*
X51877981Y-61348209D01*
X51877981Y-61348209D02*
X51782743Y-61300590D01*
X51782743Y-61300590D02*
X51735124Y-61252971D01*
X51735124Y-61252971D02*
X51687505Y-61157733D01*
X51687505Y-61157733D02*
X51687505Y-61062495D01*
X51687505Y-61062495D02*
X51735124Y-60967257D01*
X51735124Y-60967257D02*
X51782743Y-60919638D01*
X51782743Y-60919638D02*
X51877981Y-60872019D01*
X51877981Y-60872019D02*
X52116076Y-60872019D01*
X52116076Y-60872019D02*
X52258933Y-60919638D01*
X53020838Y-61348209D02*
X53163695Y-61395828D01*
X53163695Y-61395828D02*
X53211314Y-61443447D01*
X53211314Y-61443447D02*
X53258933Y-61538685D01*
X53258933Y-61538685D02*
X53258933Y-61681542D01*
X53258933Y-61681542D02*
X53211314Y-61776780D01*
X53211314Y-61776780D02*
X53163695Y-61824400D01*
X53163695Y-61824400D02*
X53068457Y-61872019D01*
X53068457Y-61872019D02*
X52687505Y-61872019D01*
X52687505Y-61872019D02*
X52687505Y-60872019D01*
X52687505Y-60872019D02*
X53020838Y-60872019D01*
X53020838Y-60872019D02*
X53116076Y-60919638D01*
X53116076Y-60919638D02*
X53163695Y-60967257D01*
X53163695Y-60967257D02*
X53211314Y-61062495D01*
X53211314Y-61062495D02*
X53211314Y-61157733D01*
X53211314Y-61157733D02*
X53163695Y-61252971D01*
X53163695Y-61252971D02*
X53116076Y-61300590D01*
X53116076Y-61300590D02*
X53020838Y-61348209D01*
X53020838Y-61348209D02*
X52687505Y-61348209D01*
X54211314Y-61872019D02*
X53639886Y-61872019D01*
X53925600Y-61872019D02*
X53925600Y-60872019D01*
X53925600Y-60872019D02*
X53830362Y-61014876D01*
X53830362Y-61014876D02*
X53735124Y-61110114D01*
X53735124Y-61110114D02*
X53639886Y-61157733D01*
X96034266Y-61049819D02*
X96034266Y-61764104D01*
X96034266Y-61764104D02*
X95986647Y-61906961D01*
X95986647Y-61906961D02*
X95891409Y-62002200D01*
X95891409Y-62002200D02*
X95748552Y-62049819D01*
X95748552Y-62049819D02*
X95653314Y-62049819D01*
X96415219Y-61049819D02*
X97034266Y-61049819D01*
X97034266Y-61049819D02*
X96700933Y-61430771D01*
X96700933Y-61430771D02*
X96843790Y-61430771D01*
X96843790Y-61430771D02*
X96939028Y-61478390D01*
X96939028Y-61478390D02*
X96986647Y-61526009D01*
X96986647Y-61526009D02*
X97034266Y-61621247D01*
X97034266Y-61621247D02*
X97034266Y-61859342D01*
X97034266Y-61859342D02*
X96986647Y-61954580D01*
X96986647Y-61954580D02*
X96939028Y-62002200D01*
X96939028Y-62002200D02*
X96843790Y-62049819D01*
X96843790Y-62049819D02*
X96558076Y-62049819D01*
X96558076Y-62049819D02*
X96462838Y-62002200D01*
X96462838Y-62002200D02*
X96415219Y-61954580D01*
X11485714Y-24584819D02*
X11485714Y-23584819D01*
X11485714Y-23584819D02*
X11723809Y-23584819D01*
X11723809Y-23584819D02*
X11866666Y-23632438D01*
X11866666Y-23632438D02*
X11961904Y-23727676D01*
X11961904Y-23727676D02*
X12009523Y-23822914D01*
X12009523Y-23822914D02*
X12057142Y-24013390D01*
X12057142Y-24013390D02*
X12057142Y-24156247D01*
X12057142Y-24156247D02*
X12009523Y-24346723D01*
X12009523Y-24346723D02*
X11961904Y-24441961D01*
X11961904Y-24441961D02*
X11866666Y-24537200D01*
X11866666Y-24537200D02*
X11723809Y-24584819D01*
X11723809Y-24584819D02*
X11485714Y-24584819D01*
X12438095Y-24537200D02*
X12580952Y-24584819D01*
X12580952Y-24584819D02*
X12819047Y-24584819D01*
X12819047Y-24584819D02*
X12914285Y-24537200D01*
X12914285Y-24537200D02*
X12961904Y-24489580D01*
X12961904Y-24489580D02*
X13009523Y-24394342D01*
X13009523Y-24394342D02*
X13009523Y-24299104D01*
X13009523Y-24299104D02*
X12961904Y-24203866D01*
X12961904Y-24203866D02*
X12914285Y-24156247D01*
X12914285Y-24156247D02*
X12819047Y-24108628D01*
X12819047Y-24108628D02*
X12628571Y-24061009D01*
X12628571Y-24061009D02*
X12533333Y-24013390D01*
X12533333Y-24013390D02*
X12485714Y-23965771D01*
X12485714Y-23965771D02*
X12438095Y-23870533D01*
X12438095Y-23870533D02*
X12438095Y-23775295D01*
X12438095Y-23775295D02*
X12485714Y-23680057D01*
X12485714Y-23680057D02*
X12533333Y-23632438D01*
X12533333Y-23632438D02*
X12628571Y-23584819D01*
X12628571Y-23584819D02*
X12866666Y-23584819D01*
X12866666Y-23584819D02*
X13009523Y-23632438D01*
X13961904Y-24584819D02*
X13390476Y-24584819D01*
X13676190Y-24584819D02*
X13676190Y-23584819D01*
X13676190Y-23584819D02*
X13580952Y-23727676D01*
X13580952Y-23727676D02*
X13485714Y-23822914D01*
X13485714Y-23822914D02*
X13390476Y-23870533D01*
X64748580Y-57062666D02*
X64796200Y-57110285D01*
X64796200Y-57110285D02*
X64843819Y-57253142D01*
X64843819Y-57253142D02*
X64843819Y-57348380D01*
X64843819Y-57348380D02*
X64796200Y-57491237D01*
X64796200Y-57491237D02*
X64700961Y-57586475D01*
X64700961Y-57586475D02*
X64605723Y-57634094D01*
X64605723Y-57634094D02*
X64415247Y-57681713D01*
X64415247Y-57681713D02*
X64272390Y-57681713D01*
X64272390Y-57681713D02*
X64081914Y-57634094D01*
X64081914Y-57634094D02*
X63986676Y-57586475D01*
X63986676Y-57586475D02*
X63891438Y-57491237D01*
X63891438Y-57491237D02*
X63843819Y-57348380D01*
X63843819Y-57348380D02*
X63843819Y-57253142D01*
X63843819Y-57253142D02*
X63891438Y-57110285D01*
X63891438Y-57110285D02*
X63939057Y-57062666D01*
X63843819Y-56729332D02*
X63843819Y-56110285D01*
X63843819Y-56110285D02*
X64224771Y-56443618D01*
X64224771Y-56443618D02*
X64224771Y-56300761D01*
X64224771Y-56300761D02*
X64272390Y-56205523D01*
X64272390Y-56205523D02*
X64320009Y-56157904D01*
X64320009Y-56157904D02*
X64415247Y-56110285D01*
X64415247Y-56110285D02*
X64653342Y-56110285D01*
X64653342Y-56110285D02*
X64748580Y-56157904D01*
X64748580Y-56157904D02*
X64796200Y-56205523D01*
X64796200Y-56205523D02*
X64843819Y-56300761D01*
X64843819Y-56300761D02*
X64843819Y-56586475D01*
X64843819Y-56586475D02*
X64796200Y-56681713D01*
X64796200Y-56681713D02*
X64748580Y-56729332D01*
X36885714Y-24584819D02*
X36885714Y-23584819D01*
X36885714Y-23584819D02*
X37123809Y-23584819D01*
X37123809Y-23584819D02*
X37266666Y-23632438D01*
X37266666Y-23632438D02*
X37361904Y-23727676D01*
X37361904Y-23727676D02*
X37409523Y-23822914D01*
X37409523Y-23822914D02*
X37457142Y-24013390D01*
X37457142Y-24013390D02*
X37457142Y-24156247D01*
X37457142Y-24156247D02*
X37409523Y-24346723D01*
X37409523Y-24346723D02*
X37361904Y-24441961D01*
X37361904Y-24441961D02*
X37266666Y-24537200D01*
X37266666Y-24537200D02*
X37123809Y-24584819D01*
X37123809Y-24584819D02*
X36885714Y-24584819D01*
X37838095Y-24537200D02*
X37980952Y-24584819D01*
X37980952Y-24584819D02*
X38219047Y-24584819D01*
X38219047Y-24584819D02*
X38314285Y-24537200D01*
X38314285Y-24537200D02*
X38361904Y-24489580D01*
X38361904Y-24489580D02*
X38409523Y-24394342D01*
X38409523Y-24394342D02*
X38409523Y-24299104D01*
X38409523Y-24299104D02*
X38361904Y-24203866D01*
X38361904Y-24203866D02*
X38314285Y-24156247D01*
X38314285Y-24156247D02*
X38219047Y-24108628D01*
X38219047Y-24108628D02*
X38028571Y-24061009D01*
X38028571Y-24061009D02*
X37933333Y-24013390D01*
X37933333Y-24013390D02*
X37885714Y-23965771D01*
X37885714Y-23965771D02*
X37838095Y-23870533D01*
X37838095Y-23870533D02*
X37838095Y-23775295D01*
X37838095Y-23775295D02*
X37885714Y-23680057D01*
X37885714Y-23680057D02*
X37933333Y-23632438D01*
X37933333Y-23632438D02*
X38028571Y-23584819D01*
X38028571Y-23584819D02*
X38266666Y-23584819D01*
X38266666Y-23584819D02*
X38409523Y-23632438D01*
X38790476Y-23680057D02*
X38838095Y-23632438D01*
X38838095Y-23632438D02*
X38933333Y-23584819D01*
X38933333Y-23584819D02*
X39171428Y-23584819D01*
X39171428Y-23584819D02*
X39266666Y-23632438D01*
X39266666Y-23632438D02*
X39314285Y-23680057D01*
X39314285Y-23680057D02*
X39361904Y-23775295D01*
X39361904Y-23775295D02*
X39361904Y-23870533D01*
X39361904Y-23870533D02*
X39314285Y-24013390D01*
X39314285Y-24013390D02*
X38742857Y-24584819D01*
X38742857Y-24584819D02*
X39361904Y-24584819D01*
X15629047Y-70797009D02*
X15771904Y-70844628D01*
X15771904Y-70844628D02*
X15819523Y-70892247D01*
X15819523Y-70892247D02*
X15867142Y-70987485D01*
X15867142Y-70987485D02*
X15867142Y-71130342D01*
X15867142Y-71130342D02*
X15819523Y-71225580D01*
X15819523Y-71225580D02*
X15771904Y-71273200D01*
X15771904Y-71273200D02*
X15676666Y-71320819D01*
X15676666Y-71320819D02*
X15295714Y-71320819D01*
X15295714Y-71320819D02*
X15295714Y-70320819D01*
X15295714Y-70320819D02*
X15629047Y-70320819D01*
X15629047Y-70320819D02*
X15724285Y-70368438D01*
X15724285Y-70368438D02*
X15771904Y-70416057D01*
X15771904Y-70416057D02*
X15819523Y-70511295D01*
X15819523Y-70511295D02*
X15819523Y-70606533D01*
X15819523Y-70606533D02*
X15771904Y-70701771D01*
X15771904Y-70701771D02*
X15724285Y-70749390D01*
X15724285Y-70749390D02*
X15629047Y-70797009D01*
X15629047Y-70797009D02*
X15295714Y-70797009D01*
X16200476Y-70320819D02*
X16867142Y-70320819D01*
X16867142Y-70320819D02*
X16200476Y-71320819D01*
X16200476Y-71320819D02*
X16867142Y-71320819D01*
X17771904Y-71320819D02*
X17200476Y-71320819D01*
X17486190Y-71320819D02*
X17486190Y-70320819D01*
X17486190Y-70320819D02*
X17390952Y-70463676D01*
X17390952Y-70463676D02*
X17295714Y-70558914D01*
X17295714Y-70558914D02*
X17200476Y-70606533D01*
X87685714Y-1724819D02*
X87685714Y-724819D01*
X87685714Y-724819D02*
X87923809Y-724819D01*
X87923809Y-724819D02*
X88066666Y-772438D01*
X88066666Y-772438D02*
X88161904Y-867676D01*
X88161904Y-867676D02*
X88209523Y-962914D01*
X88209523Y-962914D02*
X88257142Y-1153390D01*
X88257142Y-1153390D02*
X88257142Y-1296247D01*
X88257142Y-1296247D02*
X88209523Y-1486723D01*
X88209523Y-1486723D02*
X88161904Y-1581961D01*
X88161904Y-1581961D02*
X88066666Y-1677200D01*
X88066666Y-1677200D02*
X87923809Y-1724819D01*
X87923809Y-1724819D02*
X87685714Y-1724819D01*
X88638095Y-1677200D02*
X88780952Y-1724819D01*
X88780952Y-1724819D02*
X89019047Y-1724819D01*
X89019047Y-1724819D02*
X89114285Y-1677200D01*
X89114285Y-1677200D02*
X89161904Y-1629580D01*
X89161904Y-1629580D02*
X89209523Y-1534342D01*
X89209523Y-1534342D02*
X89209523Y-1439104D01*
X89209523Y-1439104D02*
X89161904Y-1343866D01*
X89161904Y-1343866D02*
X89114285Y-1296247D01*
X89114285Y-1296247D02*
X89019047Y-1248628D01*
X89019047Y-1248628D02*
X88828571Y-1201009D01*
X88828571Y-1201009D02*
X88733333Y-1153390D01*
X88733333Y-1153390D02*
X88685714Y-1105771D01*
X88685714Y-1105771D02*
X88638095Y-1010533D01*
X88638095Y-1010533D02*
X88638095Y-915295D01*
X88638095Y-915295D02*
X88685714Y-820057D01*
X88685714Y-820057D02*
X88733333Y-772438D01*
X88733333Y-772438D02*
X88828571Y-724819D01*
X88828571Y-724819D02*
X89066666Y-724819D01*
X89066666Y-724819D02*
X89209523Y-772438D01*
X89780952Y-1153390D02*
X89685714Y-1105771D01*
X89685714Y-1105771D02*
X89638095Y-1058152D01*
X89638095Y-1058152D02*
X89590476Y-962914D01*
X89590476Y-962914D02*
X89590476Y-915295D01*
X89590476Y-915295D02*
X89638095Y-820057D01*
X89638095Y-820057D02*
X89685714Y-772438D01*
X89685714Y-772438D02*
X89780952Y-724819D01*
X89780952Y-724819D02*
X89971428Y-724819D01*
X89971428Y-724819D02*
X90066666Y-772438D01*
X90066666Y-772438D02*
X90114285Y-820057D01*
X90114285Y-820057D02*
X90161904Y-915295D01*
X90161904Y-915295D02*
X90161904Y-962914D01*
X90161904Y-962914D02*
X90114285Y-1058152D01*
X90114285Y-1058152D02*
X90066666Y-1105771D01*
X90066666Y-1105771D02*
X89971428Y-1153390D01*
X89971428Y-1153390D02*
X89780952Y-1153390D01*
X89780952Y-1153390D02*
X89685714Y-1201009D01*
X89685714Y-1201009D02*
X89638095Y-1248628D01*
X89638095Y-1248628D02*
X89590476Y-1343866D01*
X89590476Y-1343866D02*
X89590476Y-1534342D01*
X89590476Y-1534342D02*
X89638095Y-1629580D01*
X89638095Y-1629580D02*
X89685714Y-1677200D01*
X89685714Y-1677200D02*
X89780952Y-1724819D01*
X89780952Y-1724819D02*
X89971428Y-1724819D01*
X89971428Y-1724819D02*
X90066666Y-1677200D01*
X90066666Y-1677200D02*
X90114285Y-1629580D01*
X90114285Y-1629580D02*
X90161904Y-1534342D01*
X90161904Y-1534342D02*
X90161904Y-1343866D01*
X90161904Y-1343866D02*
X90114285Y-1248628D01*
X90114285Y-1248628D02*
X90066666Y-1201009D01*
X90066666Y-1201009D02*
X89971428Y-1153390D01*
X11485714Y-1724819D02*
X11485714Y-724819D01*
X11485714Y-724819D02*
X11723809Y-724819D01*
X11723809Y-724819D02*
X11866666Y-772438D01*
X11866666Y-772438D02*
X11961904Y-867676D01*
X11961904Y-867676D02*
X12009523Y-962914D01*
X12009523Y-962914D02*
X12057142Y-1153390D01*
X12057142Y-1153390D02*
X12057142Y-1296247D01*
X12057142Y-1296247D02*
X12009523Y-1486723D01*
X12009523Y-1486723D02*
X11961904Y-1581961D01*
X11961904Y-1581961D02*
X11866666Y-1677200D01*
X11866666Y-1677200D02*
X11723809Y-1724819D01*
X11723809Y-1724819D02*
X11485714Y-1724819D01*
X12438095Y-1677200D02*
X12580952Y-1724819D01*
X12580952Y-1724819D02*
X12819047Y-1724819D01*
X12819047Y-1724819D02*
X12914285Y-1677200D01*
X12914285Y-1677200D02*
X12961904Y-1629580D01*
X12961904Y-1629580D02*
X13009523Y-1534342D01*
X13009523Y-1534342D02*
X13009523Y-1439104D01*
X13009523Y-1439104D02*
X12961904Y-1343866D01*
X12961904Y-1343866D02*
X12914285Y-1296247D01*
X12914285Y-1296247D02*
X12819047Y-1248628D01*
X12819047Y-1248628D02*
X12628571Y-1201009D01*
X12628571Y-1201009D02*
X12533333Y-1153390D01*
X12533333Y-1153390D02*
X12485714Y-1105771D01*
X12485714Y-1105771D02*
X12438095Y-1010533D01*
X12438095Y-1010533D02*
X12438095Y-915295D01*
X12438095Y-915295D02*
X12485714Y-820057D01*
X12485714Y-820057D02*
X12533333Y-772438D01*
X12533333Y-772438D02*
X12628571Y-724819D01*
X12628571Y-724819D02*
X12866666Y-724819D01*
X12866666Y-724819D02*
X13009523Y-772438D01*
X13914285Y-724819D02*
X13438095Y-724819D01*
X13438095Y-724819D02*
X13390476Y-1201009D01*
X13390476Y-1201009D02*
X13438095Y-1153390D01*
X13438095Y-1153390D02*
X13533333Y-1105771D01*
X13533333Y-1105771D02*
X13771428Y-1105771D01*
X13771428Y-1105771D02*
X13866666Y-1153390D01*
X13866666Y-1153390D02*
X13914285Y-1201009D01*
X13914285Y-1201009D02*
X13961904Y-1296247D01*
X13961904Y-1296247D02*
X13961904Y-1534342D01*
X13961904Y-1534342D02*
X13914285Y-1629580D01*
X13914285Y-1629580D02*
X13866666Y-1677200D01*
X13866666Y-1677200D02*
X13771428Y-1724819D01*
X13771428Y-1724819D02*
X13533333Y-1724819D01*
X13533333Y-1724819D02*
X13438095Y-1677200D01*
X13438095Y-1677200D02*
X13390476Y-1629580D01*
D12*
%TO.C,DS4*%
X77216000Y-25146000D02*
X77216000Y-45974000D01*
X77216000Y-25146000D02*
X100584000Y-25146000D01*
X77216000Y-45974000D02*
X100584000Y-45974000D01*
X77470000Y-45720000D02*
X77470000Y-44958000D01*
X77470000Y-45720000D02*
X78232000Y-45720000D01*
X100584000Y-45974000D02*
X100584000Y-25146000D01*
%TO.C,DS7*%
X51816000Y-2286000D02*
X51816000Y-23114000D01*
X51816000Y-2286000D02*
X75184000Y-2286000D01*
X51816000Y-23114000D02*
X75184000Y-23114000D01*
X52070000Y-22860000D02*
X52070000Y-22098000D01*
X52070000Y-22860000D02*
X52832000Y-22860000D01*
X75184000Y-23114000D02*
X75184000Y-2286000D01*
%TO.C,DS3*%
X51816000Y-25146000D02*
X51816000Y-45974000D01*
X51816000Y-25146000D02*
X75184000Y-25146000D01*
X51816000Y-45974000D02*
X75184000Y-45974000D01*
X52070000Y-45720000D02*
X52070000Y-44958000D01*
X52070000Y-45720000D02*
X52832000Y-45720000D01*
X75184000Y-45974000D02*
X75184000Y-25146000D01*
%TO.C,DS6*%
X26416000Y-2286000D02*
X26416000Y-23114000D01*
X26416000Y-2286000D02*
X49784000Y-2286000D01*
X26416000Y-23114000D02*
X49784000Y-23114000D01*
X26670000Y-22860000D02*
X26670000Y-22098000D01*
X26670000Y-22860000D02*
X27432000Y-22860000D01*
X49784000Y-23114000D02*
X49784000Y-2286000D01*
%TO.C,USB1*%
X44400000Y-61845200D02*
X44400000Y-51845200D01*
X49400000Y-61845200D02*
X49400000Y-51845200D01*
X50400000Y-61845200D02*
X44400000Y-61845200D01*
X50400000Y-61845200D02*
X50400000Y-60845200D01*
X46000000Y-61245200D02*
X46000000Y-60245200D01*
X48000000Y-61245200D02*
X46000000Y-61245200D01*
X46000000Y-60245200D02*
X48000000Y-60245200D01*
X48000000Y-60245200D02*
X48000000Y-61245200D01*
X48800000Y-58845200D02*
X44400000Y-58845200D01*
X48800000Y-58845200D02*
X48800000Y-54845200D01*
X48800000Y-54845200D02*
X44400000Y-54845200D01*
X46000000Y-53445200D02*
X48000000Y-53445200D01*
X48000000Y-53445200D02*
X48000000Y-52445200D01*
X46000000Y-52445200D02*
X46000000Y-53445200D01*
X48000000Y-52445200D02*
X46000000Y-52445200D01*
X44400000Y-51845200D02*
X50400000Y-51845200D01*
X50400000Y-51845200D02*
X50400000Y-52845200D01*
D13*
%TO.C,J3*%
X94654000Y-60610000D02*
X94654000Y-57110000D01*
X98270000Y-60610000D02*
X94654000Y-60610000D01*
X93070000Y-57110000D02*
X93070000Y-51510000D01*
X94654000Y-57110000D02*
X93070000Y-57110000D01*
X95070000Y-56810000D02*
X98270000Y-56810000D01*
X95070000Y-56810000D02*
X95070000Y-51810000D01*
X98270000Y-56810000D02*
X98270000Y-60610000D01*
X95070000Y-51810000D02*
X98270000Y-51810000D01*
X98270000Y-51810000D02*
X98270000Y-48010000D01*
X94654000Y-51510000D02*
X93070000Y-51510000D01*
X94654000Y-48010000D02*
X94654000Y-51510000D01*
X98270000Y-48010000D02*
X94654000Y-48010000D01*
D12*
%TO.C,DS1*%
X1016000Y-25146000D02*
X1016000Y-45974000D01*
X1016000Y-25146000D02*
X24384000Y-25146000D01*
X1016000Y-45974000D02*
X24384000Y-45974000D01*
X1270000Y-45720000D02*
X1270000Y-44958000D01*
X1270000Y-45720000D02*
X2032000Y-45720000D01*
X24384000Y-45974000D02*
X24384000Y-25146000D01*
D13*
%TO.C,C3*%
X58223500Y-61333500D02*
X58223500Y-60546000D01*
X57829750Y-60939750D02*
X58617250Y-60939750D01*
X57725437Y-60306000D02*
X59011000Y-60306000D01*
X57725437Y-60306000D02*
X56661000Y-59241563D01*
X62416563Y-60306000D02*
X61131000Y-60306000D01*
X62416563Y-60306000D02*
X63481000Y-59241563D01*
X56661000Y-59241563D02*
X56661000Y-53486000D01*
X63481000Y-59241563D02*
X63481000Y-53486000D01*
X56661000Y-53486000D02*
X59011000Y-53486000D01*
X63481000Y-53486000D02*
X61131000Y-53486000D01*
D12*
%TO.C,DS2*%
X26416000Y-25146000D02*
X26416000Y-45974000D01*
X26416000Y-25146000D02*
X49784000Y-25146000D01*
X26416000Y-45974000D02*
X49784000Y-45974000D01*
X26670000Y-45720000D02*
X26670000Y-44958000D01*
X26670000Y-45720000D02*
X27432000Y-45720000D01*
X49784000Y-45974000D02*
X49784000Y-25146000D01*
%TO.C,DS8*%
X77216000Y-2286000D02*
X77216000Y-23114000D01*
X77216000Y-2286000D02*
X100584000Y-2286000D01*
X77216000Y-23114000D02*
X100584000Y-23114000D01*
X77470000Y-22860000D02*
X77470000Y-22098000D01*
X77470000Y-22860000D02*
X78232000Y-22860000D01*
X100584000Y-23114000D02*
X100584000Y-2286000D01*
%TO.C,DS5*%
X1016000Y-2286000D02*
X1016000Y-23114000D01*
X1016000Y-2286000D02*
X24384000Y-2286000D01*
X1016000Y-23114000D02*
X24384000Y-23114000D01*
X1270000Y-22860000D02*
X1270000Y-22098000D01*
X1270000Y-22860000D02*
X2032000Y-22860000D01*
X24384000Y-23114000D02*
X24384000Y-2286000D01*
%TD*%
%LPC*%
D14*
%TO.C,DS4*%
X83820000Y-43180000D03*
D15*
X78740000Y-43180000D03*
D16*
X81280000Y-43180000D03*
X86360000Y-43180000D03*
X88900000Y-43180000D03*
X91440000Y-43180000D03*
X93980000Y-43180000D03*
X96520000Y-43180000D03*
X99060000Y-43180000D03*
X99060000Y-27940000D03*
X96520000Y-27940000D03*
X93980000Y-27940000D03*
X91440000Y-27940000D03*
X88900000Y-27940000D03*
X86360000Y-27940000D03*
X83820000Y-27940000D03*
X81280000Y-27940000D03*
X78740000Y-27940000D03*
%TD*%
D14*
%TO.C,DS7*%
X58420000Y-20320000D03*
D15*
X53340000Y-20320000D03*
D16*
X55880000Y-20320000D03*
X60960000Y-20320000D03*
X63500000Y-20320000D03*
X66040000Y-20320000D03*
X68580000Y-20320000D03*
X71120000Y-20320000D03*
X73660000Y-20320000D03*
X73660000Y-5080000D03*
X71120000Y-5080000D03*
X68580000Y-5080000D03*
X66040000Y-5080000D03*
X63500000Y-5080000D03*
X60960000Y-5080000D03*
X58420000Y-5080000D03*
X55880000Y-5080000D03*
X53340000Y-5080000D03*
%TD*%
D14*
%TO.C,DS3*%
X58420000Y-43180000D03*
D15*
X53340000Y-43180000D03*
D16*
X55880000Y-43180000D03*
X60960000Y-43180000D03*
X63500000Y-43180000D03*
X66040000Y-43180000D03*
X68580000Y-43180000D03*
X71120000Y-43180000D03*
X73660000Y-43180000D03*
X73660000Y-27940000D03*
X71120000Y-27940000D03*
X68580000Y-27940000D03*
X66040000Y-27940000D03*
X63500000Y-27940000D03*
X60960000Y-27940000D03*
X58420000Y-27940000D03*
X55880000Y-27940000D03*
X53340000Y-27940000D03*
%TD*%
D14*
%TO.C,DS6*%
X33020000Y-20320000D03*
D15*
X27940000Y-20320000D03*
D16*
X30480000Y-20320000D03*
X35560000Y-20320000D03*
X38100000Y-20320000D03*
X40640000Y-20320000D03*
X43180000Y-20320000D03*
X45720000Y-20320000D03*
X48260000Y-20320000D03*
X48260000Y-5080000D03*
X45720000Y-5080000D03*
X43180000Y-5080000D03*
X40640000Y-5080000D03*
X38100000Y-5080000D03*
X35560000Y-5080000D03*
X33020000Y-5080000D03*
X30480000Y-5080000D03*
X27940000Y-5080000D03*
%TD*%
D17*
%TO.C,H2*%
X96520000Y2540000D03*
%TD*%
D18*
%TO.C,USB1*%
X50800000Y-53845200D03*
D19*
X50800000Y-55845200D03*
X50800000Y-57845200D03*
X50800000Y-59845200D03*
%TD*%
D20*
%TO.C,J3*%
X96394000Y-58705000D03*
X96394000Y-49915000D03*
D21*
X94070000Y-56560000D03*
X94070000Y-56060000D03*
X94070000Y-55560000D03*
X94070000Y-55060000D03*
X94070000Y-54560000D03*
X94070000Y-54060000D03*
X94070000Y-53560000D03*
X94070000Y-53060000D03*
X94070000Y-52560000D03*
X94070000Y-52060000D03*
%TD*%
D14*
%TO.C,DS1*%
X7620000Y-43180000D03*
D15*
X2540000Y-43180000D03*
D16*
X5080000Y-43180000D03*
X10160000Y-43180000D03*
X12700000Y-43180000D03*
X15240000Y-43180000D03*
X17780000Y-43180000D03*
X20320000Y-43180000D03*
X22860000Y-43180000D03*
X22860000Y-27940000D03*
X20320000Y-27940000D03*
X17780000Y-27940000D03*
X15240000Y-27940000D03*
X12700000Y-27940000D03*
X10160000Y-27940000D03*
X7620000Y-27940000D03*
X5080000Y-27940000D03*
X2540000Y-27940000D03*
%TD*%
D22*
%TO.C,C3*%
X60071000Y-59596000D03*
X60071000Y-54196000D03*
%TD*%
D14*
%TO.C,DS2*%
X33020000Y-43180000D03*
D15*
X27940000Y-43180000D03*
D16*
X30480000Y-43180000D03*
X35560000Y-43180000D03*
X38100000Y-43180000D03*
X40640000Y-43180000D03*
X43180000Y-43180000D03*
X45720000Y-43180000D03*
X48260000Y-43180000D03*
X48260000Y-27940000D03*
X45720000Y-27940000D03*
X43180000Y-27940000D03*
X40640000Y-27940000D03*
X38100000Y-27940000D03*
X35560000Y-27940000D03*
X33020000Y-27940000D03*
X30480000Y-27940000D03*
X27940000Y-27940000D03*
%TD*%
D23*
%TO.C,BZ1*%
X16636994Y-63547000D03*
X16636994Y-53547000D03*
%TD*%
D17*
%TO.C,H1*%
X5080000Y2540000D03*
%TD*%
D14*
%TO.C,DS8*%
X83820000Y-20320000D03*
D15*
X78740000Y-20320000D03*
D16*
X81280000Y-20320000D03*
X86360000Y-20320000D03*
X88900000Y-20320000D03*
X91440000Y-20320000D03*
X93980000Y-20320000D03*
X96520000Y-20320000D03*
X99060000Y-20320000D03*
X99060000Y-5080000D03*
X96520000Y-5080000D03*
X93980000Y-5080000D03*
X91440000Y-5080000D03*
X88900000Y-5080000D03*
X86360000Y-5080000D03*
X83820000Y-5080000D03*
X81280000Y-5080000D03*
X78740000Y-5080000D03*
%TD*%
D14*
%TO.C,DS5*%
X7620000Y-20320000D03*
D15*
X2540000Y-20320000D03*
D16*
X5080000Y-20320000D03*
X10160000Y-20320000D03*
X12700000Y-20320000D03*
X15240000Y-20320000D03*
X17780000Y-20320000D03*
X20320000Y-20320000D03*
X22860000Y-20320000D03*
X22860000Y-5080000D03*
X20320000Y-5080000D03*
X17780000Y-5080000D03*
X15240000Y-5080000D03*
X12700000Y-5080000D03*
X10160000Y-5080000D03*
X7620000Y-5080000D03*
X5080000Y-5080000D03*
X2540000Y-5080000D03*
%TD*%
D24*
%TO.C,J4*%
X79527400Y-50698400D03*
D25*
X82067400Y-50698400D03*
X84607400Y-50698400D03*
X87147400Y-50698400D03*
X89687400Y-50698400D03*
X92227400Y-50698400D03*
%TD*%
D17*
%TO.C,H4*%
X50800000Y-68580000D03*
%TD*%
D26*
%TO.C,U1*%
X86270000Y-63660000D03*
%TD*%
D18*
%TO.C,USB2*%
X53086000Y-53845200D03*
D19*
X53086000Y-55845200D03*
X53086000Y-57845200D03*
X53086000Y-59845200D03*
%TD*%
D24*
%TO.C,J5*%
X40640000Y-48641000D03*
D25*
X43180000Y-48641000D03*
X45720000Y-48641000D03*
X48260000Y-48641000D03*
%TD*%
D24*
%TO.C,J6*%
X44450000Y-69545200D03*
D25*
X41910000Y-69545200D03*
X39370000Y-69545200D03*
X36830000Y-69545200D03*
%TD*%
D17*
%TO.C,H3*%
X5080000Y-68580000D03*
%TD*%
%LPD*%
M02*
