%TF.GenerationSoftware,KiCad,Pcbnew,7.0.8*%
%TF.CreationDate,2024-01-07T19:19:44+01:00*%
%TF.ProjectId,16SegLed,31365365-674c-4656-942e-6b696361645f,rev?*%
%TF.SameCoordinates,Original*%
%TF.FileFunction,Soldermask,Bot*%
%TF.FilePolarity,Negative*%
%FSLAX46Y46*%
G04 Gerber Fmt 4.6, Leading zero omitted, Abs format (unit mm)*
G04 Created by KiCad (PCBNEW 7.0.8) date 2024-01-07 19:19:44*
%MOMM*%
%LPD*%
G01*
G04 APERTURE LIST*
G04 Aperture macros list*
%AMRoundRect*
0 Rectangle with rounded corners*
0 $1 Rounding radius*
0 $2 $3 $4 $5 $6 $7 $8 $9 X,Y pos of 4 corners*
0 Add a 4 corners polygon primitive as box body*
4,1,4,$2,$3,$4,$5,$6,$7,$8,$9,$2,$3,0*
0 Add four circle primitives for the rounded corners*
1,1,$1+$1,$2,$3*
1,1,$1+$1,$4,$5*
1,1,$1+$1,$6,$7*
1,1,$1+$1,$8,$9*
0 Add four rect primitives between the rounded corners*
20,1,$1+$1,$2,$3,$4,$5,0*
20,1,$1+$1,$4,$5,$6,$7,0*
20,1,$1+$1,$6,$7,$8,$9,0*
20,1,$1+$1,$8,$9,$2,$3,0*%
G04 Aperture macros list end*
%ADD10C,1.200000*%
%ADD11RoundRect,0.300000X-0.300000X-0.300000X0.300000X-0.300000X0.300000X0.300000X-0.300000X0.300000X0*%
%ADD12O,1.200000X1.500000*%
%ADD13C,6.400000*%
%ADD14RoundRect,0.250000X0.625000X-0.350000X0.625000X0.350000X-0.625000X0.350000X-0.625000X-0.350000X0*%
%ADD15O,1.750000X1.200000*%
%ADD16C,1.524000*%
%ADD17R,2.000000X1.500000*%
%ADD18R,2.000000X3.800000*%
%ADD19RoundRect,0.150000X0.587500X0.150000X-0.587500X0.150000X-0.587500X-0.150000X0.587500X-0.150000X0*%
%ADD20RoundRect,0.250000X0.450000X-0.262500X0.450000X0.262500X-0.450000X0.262500X-0.450000X-0.262500X0*%
%ADD21RoundRect,0.250000X0.475000X-0.250000X0.475000X0.250000X-0.475000X0.250000X-0.475000X-0.250000X0*%
%ADD22RoundRect,0.250000X-0.450000X0.262500X-0.450000X-0.262500X0.450000X-0.262500X0.450000X0.262500X0*%
%ADD23RoundRect,0.250000X0.250000X0.475000X-0.250000X0.475000X-0.250000X-0.475000X0.250000X-0.475000X0*%
%ADD24RoundRect,0.250000X-0.250000X-0.475000X0.250000X-0.475000X0.250000X0.475000X-0.250000X0.475000X0*%
%ADD25RoundRect,0.300000X-1.200000X1.305000X-1.200000X-1.305000X1.200000X-1.305000X1.200000X1.305000X0*%
%ADD26R,1.250000X0.300000*%
%ADD27RoundRect,0.150000X-0.150000X0.875000X-0.150000X-0.875000X0.150000X-0.875000X0.150000X0.875000X0*%
%ADD28R,1.700000X1.700000*%
%ADD29O,1.700000X1.700000*%
%ADD30RoundRect,0.250000X-0.425000X0.450000X-0.425000X-0.450000X0.425000X-0.450000X0.425000X0.450000X0*%
%ADD31RoundRect,0.243750X0.456250X-0.243750X0.456250X0.243750X-0.456250X0.243750X-0.456250X-0.243750X0*%
%ADD32RoundRect,0.250000X0.262500X0.450000X-0.262500X0.450000X-0.262500X-0.450000X0.262500X-0.450000X0*%
%ADD33R,0.400000X0.650000*%
%ADD34RoundRect,0.243750X-0.243750X-0.456250X0.243750X-0.456250X0.243750X0.456250X-0.243750X0.456250X0*%
%ADD35RoundRect,0.150000X-0.150000X0.512500X-0.150000X-0.512500X0.150000X-0.512500X0.150000X0.512500X0*%
%ADD36R,1.100000X0.800000*%
%ADD37R,1.500000X0.900000*%
%ADD38R,0.900000X1.500000*%
%ADD39C,4.700000*%
%ADD40RoundRect,0.300000X1.200000X-1.305000X1.200000X1.305000X-1.200000X1.305000X-1.200000X-1.305000X0*%
%ADD41RoundRect,0.250000X-0.262500X-0.450000X0.262500X-0.450000X0.262500X0.450000X-0.262500X0.450000X0*%
%ADD42RoundRect,0.250000X-0.475000X0.250000X-0.475000X-0.250000X0.475000X-0.250000X0.475000X0.250000X0*%
G04 APERTURE END LIST*
D10*
%TO.C,DS4*%
X83820000Y-43180000D03*
D11*
X78740000Y-43180000D03*
D12*
X81280000Y-43180000D03*
X86360000Y-43180000D03*
X88900000Y-43180000D03*
X91440000Y-43180000D03*
X93980000Y-43180000D03*
X96520000Y-43180000D03*
X99060000Y-43180000D03*
X99060000Y-27940000D03*
X96520000Y-27940000D03*
X93980000Y-27940000D03*
X91440000Y-27940000D03*
X88900000Y-27940000D03*
X86360000Y-27940000D03*
X83820000Y-27940000D03*
X81280000Y-27940000D03*
X78740000Y-27940000D03*
%TD*%
D10*
%TO.C,DS7*%
X58420000Y-20320000D03*
D11*
X53340000Y-20320000D03*
D12*
X55880000Y-20320000D03*
X60960000Y-20320000D03*
X63500000Y-20320000D03*
X66040000Y-20320000D03*
X68580000Y-20320000D03*
X71120000Y-20320000D03*
X73660000Y-20320000D03*
X73660000Y-5080000D03*
X71120000Y-5080000D03*
X68580000Y-5080000D03*
X66040000Y-5080000D03*
X63500000Y-5080000D03*
X60960000Y-5080000D03*
X58420000Y-5080000D03*
X55880000Y-5080000D03*
X53340000Y-5080000D03*
%TD*%
D10*
%TO.C,DS3*%
X58420000Y-43180000D03*
D11*
X53340000Y-43180000D03*
D12*
X55880000Y-43180000D03*
X60960000Y-43180000D03*
X63500000Y-43180000D03*
X66040000Y-43180000D03*
X68580000Y-43180000D03*
X71120000Y-43180000D03*
X73660000Y-43180000D03*
X73660000Y-27940000D03*
X71120000Y-27940000D03*
X68580000Y-27940000D03*
X66040000Y-27940000D03*
X63500000Y-27940000D03*
X60960000Y-27940000D03*
X58420000Y-27940000D03*
X55880000Y-27940000D03*
X53340000Y-27940000D03*
%TD*%
D10*
%TO.C,DS6*%
X33020000Y-20320000D03*
D11*
X27940000Y-20320000D03*
D12*
X30480000Y-20320000D03*
X35560000Y-20320000D03*
X38100000Y-20320000D03*
X40640000Y-20320000D03*
X43180000Y-20320000D03*
X45720000Y-20320000D03*
X48260000Y-20320000D03*
X48260000Y-5080000D03*
X45720000Y-5080000D03*
X43180000Y-5080000D03*
X40640000Y-5080000D03*
X38100000Y-5080000D03*
X35560000Y-5080000D03*
X33020000Y-5080000D03*
X30480000Y-5080000D03*
X27940000Y-5080000D03*
%TD*%
D13*
%TO.C,H2*%
X96520000Y2540000D03*
%TD*%
D14*
%TO.C,USB1*%
X50800000Y-53845200D03*
D15*
X50800000Y-55845200D03*
X50800000Y-57845200D03*
X50800000Y-59845200D03*
%TD*%
D10*
%TO.C,DS1*%
X7620000Y-43180000D03*
D11*
X2540000Y-43180000D03*
D12*
X5080000Y-43180000D03*
X10160000Y-43180000D03*
X12700000Y-43180000D03*
X15240000Y-43180000D03*
X17780000Y-43180000D03*
X20320000Y-43180000D03*
X22860000Y-43180000D03*
X22860000Y-27940000D03*
X20320000Y-27940000D03*
X17780000Y-27940000D03*
X15240000Y-27940000D03*
X12700000Y-27940000D03*
X10160000Y-27940000D03*
X7620000Y-27940000D03*
X5080000Y-27940000D03*
X2540000Y-27940000D03*
%TD*%
D10*
%TO.C,DS2*%
X33020000Y-43180000D03*
D11*
X27940000Y-43180000D03*
D12*
X30480000Y-43180000D03*
X35560000Y-43180000D03*
X38100000Y-43180000D03*
X40640000Y-43180000D03*
X43180000Y-43180000D03*
X45720000Y-43180000D03*
X48260000Y-43180000D03*
X48260000Y-27940000D03*
X45720000Y-27940000D03*
X43180000Y-27940000D03*
X40640000Y-27940000D03*
X38100000Y-27940000D03*
X35560000Y-27940000D03*
X33020000Y-27940000D03*
X30480000Y-27940000D03*
X27940000Y-27940000D03*
%TD*%
D16*
%TO.C,BZ1*%
X16636994Y-63547000D03*
X16636994Y-53547000D03*
%TD*%
D13*
%TO.C,H1*%
X5080000Y2540000D03*
%TD*%
D10*
%TO.C,DS8*%
X83820000Y-20320000D03*
D11*
X78740000Y-20320000D03*
D12*
X81280000Y-20320000D03*
X86360000Y-20320000D03*
X88900000Y-20320000D03*
X91440000Y-20320000D03*
X93980000Y-20320000D03*
X96520000Y-20320000D03*
X99060000Y-20320000D03*
X99060000Y-5080000D03*
X96520000Y-5080000D03*
X93980000Y-5080000D03*
X91440000Y-5080000D03*
X88900000Y-5080000D03*
X86360000Y-5080000D03*
X83820000Y-5080000D03*
X81280000Y-5080000D03*
X78740000Y-5080000D03*
%TD*%
D10*
%TO.C,DS5*%
X7620000Y-20320000D03*
D11*
X2540000Y-20320000D03*
D12*
X5080000Y-20320000D03*
X10160000Y-20320000D03*
X12700000Y-20320000D03*
X15240000Y-20320000D03*
X17780000Y-20320000D03*
X20320000Y-20320000D03*
X22860000Y-20320000D03*
X22860000Y-5080000D03*
X20320000Y-5080000D03*
X17780000Y-5080000D03*
X15240000Y-5080000D03*
X12700000Y-5080000D03*
X10160000Y-5080000D03*
X7620000Y-5080000D03*
X5080000Y-5080000D03*
X2540000Y-5080000D03*
%TD*%
D17*
%TO.C,U2*%
X60706000Y-70245000D03*
X60706000Y-67945000D03*
D18*
X67006000Y-67945000D03*
D17*
X60706000Y-65645000D03*
%TD*%
D19*
%TO.C,Q1*%
X34271250Y-56750250D03*
X34271250Y-58650250D03*
X32396250Y-57700250D03*
%TD*%
D20*
%TO.C,R5*%
X8636000Y-9191000D03*
X8636000Y-7366000D03*
%TD*%
D21*
%TO.C,C6*%
X47371000Y-39624000D03*
X47371000Y-37724000D03*
%TD*%
D19*
%TO.C,Q2*%
X34271250Y-52432250D03*
X34271250Y-54332250D03*
X32396250Y-53382250D03*
%TD*%
D22*
%TO.C,R11*%
X30031750Y-52469750D03*
X30031750Y-54294750D03*
%TD*%
D23*
%TO.C,C2*%
X76896000Y-70104000D03*
X74996000Y-70104000D03*
%TD*%
D24*
%TO.C,C11*%
X59756000Y-63322200D03*
X61656000Y-63322200D03*
%TD*%
D25*
%TO.C,J2*%
X20675400Y-53009000D03*
X20675400Y-61799000D03*
D26*
X18351400Y-55154000D03*
X18351400Y-55654000D03*
X18351400Y-56154000D03*
X18351400Y-56654000D03*
X18351400Y-57154000D03*
X18351400Y-57654000D03*
X18351400Y-58154000D03*
X18351400Y-58654000D03*
X18351400Y-59154000D03*
X18351400Y-59654000D03*
%TD*%
D22*
%TO.C,R8*%
X36635750Y-56787750D03*
X36635750Y-58612750D03*
%TD*%
D27*
%TO.C,U3*%
X49530000Y-30910000D03*
X50800000Y-30910000D03*
X52070000Y-30910000D03*
X53340000Y-30910000D03*
X54610000Y-30910000D03*
X55880000Y-30910000D03*
X57150000Y-30910000D03*
X58420000Y-30910000D03*
X59690000Y-30910000D03*
X60960000Y-30910000D03*
X62230000Y-30910000D03*
X63500000Y-30910000D03*
X64770000Y-30910000D03*
X66040000Y-30910000D03*
X66040000Y-40210000D03*
X64770000Y-40210000D03*
X63500000Y-40210000D03*
X62230000Y-40210000D03*
X60960000Y-40210000D03*
X59690000Y-40210000D03*
X58420000Y-40210000D03*
X57150000Y-40210000D03*
X55880000Y-40210000D03*
X54610000Y-40210000D03*
X53340000Y-40210000D03*
X52070000Y-40210000D03*
X50800000Y-40210000D03*
X49530000Y-40210000D03*
%TD*%
D28*
%TO.C,J4*%
X79527400Y-50698400D03*
D29*
X82067400Y-50698400D03*
X84607400Y-50698400D03*
X87147400Y-50698400D03*
X89687400Y-50698400D03*
X92227400Y-50698400D03*
%TD*%
D30*
%TO.C,C4*%
X57506000Y-66595000D03*
X57506000Y-69295000D03*
%TD*%
D31*
%TO.C,D1*%
X10922000Y-32076000D03*
X10922000Y-30201000D03*
%TD*%
D23*
%TO.C,C1*%
X76896000Y-65532000D03*
X74996000Y-65532000D03*
%TD*%
D20*
%TO.C,R4*%
X4064000Y-32051000D03*
X4064000Y-30226000D03*
%TD*%
D32*
%TO.C,R14*%
X67079500Y-60883800D03*
X65254500Y-60883800D03*
%TD*%
D20*
%TO.C,R12*%
X25400000Y-66190500D03*
X25400000Y-64365500D03*
%TD*%
D13*
%TO.C,H4*%
X50800000Y-68580000D03*
%TD*%
D21*
%TO.C,C7*%
X47371000Y-16764000D03*
X47371000Y-14864000D03*
%TD*%
D33*
%TO.C,U6*%
X30662400Y-66568400D03*
X30012400Y-66568400D03*
X29362400Y-66568400D03*
X29362400Y-64668400D03*
X30012400Y-64668400D03*
X30662400Y-64668400D03*
%TD*%
D24*
%TO.C,C10*%
X65674200Y-63246000D03*
X67574200Y-63246000D03*
%TD*%
D20*
%TO.C,R2*%
X8636000Y-32051000D03*
X8636000Y-30226000D03*
%TD*%
D34*
%TO.C,D3*%
X69141100Y-60883800D03*
X71016100Y-60883800D03*
%TD*%
D20*
%TO.C,R7*%
X4064000Y-9191000D03*
X4064000Y-7366000D03*
%TD*%
D23*
%TO.C,C8*%
X30820400Y-62077600D03*
X28920400Y-62077600D03*
%TD*%
D35*
%TO.C,U5*%
X73802200Y-54412300D03*
X74752200Y-54412300D03*
X75702200Y-54412300D03*
X75702200Y-56687300D03*
X74752200Y-56687300D03*
X73802200Y-56687300D03*
%TD*%
D31*
%TO.C,D2*%
X10922000Y-9213500D03*
X10922000Y-7338500D03*
%TD*%
D36*
%TO.C,SW2*%
X73195000Y-48960000D03*
X65845000Y-48960000D03*
%TD*%
D37*
%TO.C,U1*%
X79020000Y-71380000D03*
X79020000Y-70110000D03*
X79020000Y-68840000D03*
X79020000Y-67570000D03*
X79020000Y-66300000D03*
X79020000Y-65030000D03*
X79020000Y-63760000D03*
X79020000Y-62490000D03*
X79020000Y-61220000D03*
X79020000Y-59950000D03*
X79020000Y-58680000D03*
X79020000Y-57410000D03*
X79020000Y-56140000D03*
X79020000Y-54870000D03*
D38*
X80785000Y-53620000D03*
X82055000Y-53620000D03*
X83325000Y-53620000D03*
X84595000Y-53620000D03*
X85865000Y-53620000D03*
X87135000Y-53620000D03*
X88405000Y-53620000D03*
X89675000Y-53620000D03*
X90945000Y-53620000D03*
X92215000Y-53620000D03*
X93485000Y-53620000D03*
X94755000Y-53620000D03*
D37*
X96520000Y-54870000D03*
X96520000Y-56140000D03*
X96520000Y-57410000D03*
X96520000Y-58680000D03*
X96520000Y-59950000D03*
X96520000Y-61220000D03*
X96520000Y-62490000D03*
X96520000Y-63760000D03*
X96520000Y-65030000D03*
X96520000Y-66300000D03*
X96520000Y-67570000D03*
X96520000Y-68840000D03*
X96520000Y-70110000D03*
X96520000Y-71380000D03*
D39*
X86270000Y-63660000D03*
%TD*%
D14*
%TO.C,USB2*%
X53086000Y-53845200D03*
D15*
X53086000Y-55845200D03*
X53086000Y-57845200D03*
X53086000Y-59845200D03*
%TD*%
D32*
%TO.C,R13*%
X76833100Y-60883800D03*
X75008100Y-60883800D03*
%TD*%
D36*
%TO.C,SW1*%
X56345000Y-48960000D03*
X63695000Y-48960000D03*
%TD*%
D22*
%TO.C,R10*%
X36635750Y-52469750D03*
X36635750Y-54294750D03*
%TD*%
D20*
%TO.C,R6*%
X6350000Y-9191000D03*
X6350000Y-7366000D03*
%TD*%
D30*
%TO.C,C5*%
X70206000Y-66595000D03*
X70206000Y-69295000D03*
%TD*%
D22*
%TO.C,R9*%
X30031750Y-56787750D03*
X30031750Y-58612750D03*
%TD*%
D40*
%TO.C,J1*%
X4026000Y-61799000D03*
X4026000Y-53009000D03*
D26*
X6350000Y-59654000D03*
X6350000Y-59154000D03*
X6350000Y-58654000D03*
X6350000Y-58154000D03*
X6350000Y-57654000D03*
X6350000Y-57154000D03*
X6350000Y-56654000D03*
X6350000Y-56154000D03*
X6350000Y-55654000D03*
X6350000Y-55154000D03*
%TD*%
D28*
%TO.C,J5*%
X40640000Y-48641000D03*
D29*
X43180000Y-48641000D03*
X45720000Y-48641000D03*
X48260000Y-48641000D03*
%TD*%
D28*
%TO.C,J6*%
X44450000Y-69545200D03*
D29*
X41910000Y-69545200D03*
X39370000Y-69545200D03*
X36830000Y-69545200D03*
%TD*%
D41*
%TO.C,R1*%
X75033500Y-67818000D03*
X76858500Y-67818000D03*
%TD*%
D42*
%TO.C,C9*%
X33782000Y-62514400D03*
X33782000Y-64414400D03*
%TD*%
D13*
%TO.C,H3*%
X5080000Y-68580000D03*
%TD*%
D20*
%TO.C,R3*%
X6350000Y-32051000D03*
X6350000Y-30226000D03*
%TD*%
D27*
%TO.C,U4*%
X49530000Y-8050000D03*
X50800000Y-8050000D03*
X52070000Y-8050000D03*
X53340000Y-8050000D03*
X54610000Y-8050000D03*
X55880000Y-8050000D03*
X57150000Y-8050000D03*
X58420000Y-8050000D03*
X59690000Y-8050000D03*
X60960000Y-8050000D03*
X62230000Y-8050000D03*
X63500000Y-8050000D03*
X64770000Y-8050000D03*
X66040000Y-8050000D03*
X66040000Y-17350000D03*
X64770000Y-17350000D03*
X63500000Y-17350000D03*
X62230000Y-17350000D03*
X60960000Y-17350000D03*
X59690000Y-17350000D03*
X58420000Y-17350000D03*
X57150000Y-17350000D03*
X55880000Y-17350000D03*
X54610000Y-17350000D03*
X53340000Y-17350000D03*
X52070000Y-17350000D03*
X50800000Y-17350000D03*
X49530000Y-17350000D03*
%TD*%
M02*
