%TF.GenerationSoftware,KiCad,Pcbnew,7.0.8*%
%TF.CreationDate,2024-01-07T19:19:44+01:00*%
%TF.ProjectId,16SegLed,31365365-674c-4656-942e-6b696361645f,rev?*%
%TF.SameCoordinates,Original*%
%TF.FileFunction,Soldermask,Top*%
%TF.FilePolarity,Negative*%
%FSLAX46Y46*%
G04 Gerber Fmt 4.6, Leading zero omitted, Abs format (unit mm)*
G04 Created by KiCad (PCBNEW 7.0.8) date 2024-01-07 19:19:44*
%MOMM*%
%LPD*%
G01*
G04 APERTURE LIST*
G04 Aperture macros list*
%AMRoundRect*
0 Rectangle with rounded corners*
0 $1 Rounding radius*
0 $2 $3 $4 $5 $6 $7 $8 $9 X,Y pos of 4 corners*
0 Add a 4 corners polygon primitive as box body*
4,1,4,$2,$3,$4,$5,$6,$7,$8,$9,$2,$3,0*
0 Add four circle primitives for the rounded corners*
1,1,$1+$1,$2,$3*
1,1,$1+$1,$4,$5*
1,1,$1+$1,$6,$7*
1,1,$1+$1,$8,$9*
0 Add four rect primitives between the rounded corners*
20,1,$1+$1,$2,$3,$4,$5,0*
20,1,$1+$1,$4,$5,$6,$7,0*
20,1,$1+$1,$6,$7,$8,$9,0*
20,1,$1+$1,$8,$9,$2,$3,0*%
G04 Aperture macros list end*
%ADD10C,1.200000*%
%ADD11RoundRect,0.300000X-0.300000X-0.300000X0.300000X-0.300000X0.300000X0.300000X-0.300000X0.300000X0*%
%ADD12O,1.200000X1.500000*%
%ADD13C,6.400000*%
%ADD14RoundRect,0.250000X0.625000X-0.350000X0.625000X0.350000X-0.625000X0.350000X-0.625000X-0.350000X0*%
%ADD15O,1.750000X1.200000*%
%ADD16RoundRect,0.300000X1.200000X-1.305000X1.200000X1.305000X-1.200000X1.305000X-1.200000X-1.305000X0*%
%ADD17R,1.250000X0.300000*%
%ADD18RoundRect,0.250000X0.550000X-1.500000X0.550000X1.500000X-0.550000X1.500000X-0.550000X-1.500000X0*%
%ADD19C,1.524000*%
%ADD20R,1.700000X1.700000*%
%ADD21O,1.700000X1.700000*%
%ADD22C,4.700000*%
G04 APERTURE END LIST*
D10*
%TO.C,DS4*%
X83820000Y-43180000D03*
D11*
X78740000Y-43180000D03*
D12*
X81280000Y-43180000D03*
X86360000Y-43180000D03*
X88900000Y-43180000D03*
X91440000Y-43180000D03*
X93980000Y-43180000D03*
X96520000Y-43180000D03*
X99060000Y-43180000D03*
X99060000Y-27940000D03*
X96520000Y-27940000D03*
X93980000Y-27940000D03*
X91440000Y-27940000D03*
X88900000Y-27940000D03*
X86360000Y-27940000D03*
X83820000Y-27940000D03*
X81280000Y-27940000D03*
X78740000Y-27940000D03*
%TD*%
D10*
%TO.C,DS7*%
X58420000Y-20320000D03*
D11*
X53340000Y-20320000D03*
D12*
X55880000Y-20320000D03*
X60960000Y-20320000D03*
X63500000Y-20320000D03*
X66040000Y-20320000D03*
X68580000Y-20320000D03*
X71120000Y-20320000D03*
X73660000Y-20320000D03*
X73660000Y-5080000D03*
X71120000Y-5080000D03*
X68580000Y-5080000D03*
X66040000Y-5080000D03*
X63500000Y-5080000D03*
X60960000Y-5080000D03*
X58420000Y-5080000D03*
X55880000Y-5080000D03*
X53340000Y-5080000D03*
%TD*%
D10*
%TO.C,DS3*%
X58420000Y-43180000D03*
D11*
X53340000Y-43180000D03*
D12*
X55880000Y-43180000D03*
X60960000Y-43180000D03*
X63500000Y-43180000D03*
X66040000Y-43180000D03*
X68580000Y-43180000D03*
X71120000Y-43180000D03*
X73660000Y-43180000D03*
X73660000Y-27940000D03*
X71120000Y-27940000D03*
X68580000Y-27940000D03*
X66040000Y-27940000D03*
X63500000Y-27940000D03*
X60960000Y-27940000D03*
X58420000Y-27940000D03*
X55880000Y-27940000D03*
X53340000Y-27940000D03*
%TD*%
D10*
%TO.C,DS6*%
X33020000Y-20320000D03*
D11*
X27940000Y-20320000D03*
D12*
X30480000Y-20320000D03*
X35560000Y-20320000D03*
X38100000Y-20320000D03*
X40640000Y-20320000D03*
X43180000Y-20320000D03*
X45720000Y-20320000D03*
X48260000Y-20320000D03*
X48260000Y-5080000D03*
X45720000Y-5080000D03*
X43180000Y-5080000D03*
X40640000Y-5080000D03*
X38100000Y-5080000D03*
X35560000Y-5080000D03*
X33020000Y-5080000D03*
X30480000Y-5080000D03*
X27940000Y-5080000D03*
%TD*%
D13*
%TO.C,H2*%
X96520000Y2540000D03*
%TD*%
D14*
%TO.C,USB1*%
X50800000Y-53845200D03*
D15*
X50800000Y-55845200D03*
X50800000Y-57845200D03*
X50800000Y-59845200D03*
%TD*%
D16*
%TO.C,J3*%
X96394000Y-58705000D03*
X96394000Y-49915000D03*
D17*
X94070000Y-56560000D03*
X94070000Y-56060000D03*
X94070000Y-55560000D03*
X94070000Y-55060000D03*
X94070000Y-54560000D03*
X94070000Y-54060000D03*
X94070000Y-53560000D03*
X94070000Y-53060000D03*
X94070000Y-52560000D03*
X94070000Y-52060000D03*
%TD*%
D10*
%TO.C,DS1*%
X7620000Y-43180000D03*
D11*
X2540000Y-43180000D03*
D12*
X5080000Y-43180000D03*
X10160000Y-43180000D03*
X12700000Y-43180000D03*
X15240000Y-43180000D03*
X17780000Y-43180000D03*
X20320000Y-43180000D03*
X22860000Y-43180000D03*
X22860000Y-27940000D03*
X20320000Y-27940000D03*
X17780000Y-27940000D03*
X15240000Y-27940000D03*
X12700000Y-27940000D03*
X10160000Y-27940000D03*
X7620000Y-27940000D03*
X5080000Y-27940000D03*
X2540000Y-27940000D03*
%TD*%
D18*
%TO.C,C3*%
X60071000Y-59596000D03*
X60071000Y-54196000D03*
%TD*%
D10*
%TO.C,DS2*%
X33020000Y-43180000D03*
D11*
X27940000Y-43180000D03*
D12*
X30480000Y-43180000D03*
X35560000Y-43180000D03*
X38100000Y-43180000D03*
X40640000Y-43180000D03*
X43180000Y-43180000D03*
X45720000Y-43180000D03*
X48260000Y-43180000D03*
X48260000Y-27940000D03*
X45720000Y-27940000D03*
X43180000Y-27940000D03*
X40640000Y-27940000D03*
X38100000Y-27940000D03*
X35560000Y-27940000D03*
X33020000Y-27940000D03*
X30480000Y-27940000D03*
X27940000Y-27940000D03*
%TD*%
D19*
%TO.C,BZ1*%
X16636994Y-63547000D03*
X16636994Y-53547000D03*
%TD*%
D13*
%TO.C,H1*%
X5080000Y2540000D03*
%TD*%
D10*
%TO.C,DS8*%
X83820000Y-20320000D03*
D11*
X78740000Y-20320000D03*
D12*
X81280000Y-20320000D03*
X86360000Y-20320000D03*
X88900000Y-20320000D03*
X91440000Y-20320000D03*
X93980000Y-20320000D03*
X96520000Y-20320000D03*
X99060000Y-20320000D03*
X99060000Y-5080000D03*
X96520000Y-5080000D03*
X93980000Y-5080000D03*
X91440000Y-5080000D03*
X88900000Y-5080000D03*
X86360000Y-5080000D03*
X83820000Y-5080000D03*
X81280000Y-5080000D03*
X78740000Y-5080000D03*
%TD*%
D10*
%TO.C,DS5*%
X7620000Y-20320000D03*
D11*
X2540000Y-20320000D03*
D12*
X5080000Y-20320000D03*
X10160000Y-20320000D03*
X12700000Y-20320000D03*
X15240000Y-20320000D03*
X17780000Y-20320000D03*
X20320000Y-20320000D03*
X22860000Y-20320000D03*
X22860000Y-5080000D03*
X20320000Y-5080000D03*
X17780000Y-5080000D03*
X15240000Y-5080000D03*
X12700000Y-5080000D03*
X10160000Y-5080000D03*
X7620000Y-5080000D03*
X5080000Y-5080000D03*
X2540000Y-5080000D03*
%TD*%
D20*
%TO.C,J4*%
X79527400Y-50698400D03*
D21*
X82067400Y-50698400D03*
X84607400Y-50698400D03*
X87147400Y-50698400D03*
X89687400Y-50698400D03*
X92227400Y-50698400D03*
%TD*%
D13*
%TO.C,H4*%
X50800000Y-68580000D03*
%TD*%
D22*
%TO.C,U1*%
X86270000Y-63660000D03*
%TD*%
D14*
%TO.C,USB2*%
X53086000Y-53845200D03*
D15*
X53086000Y-55845200D03*
X53086000Y-57845200D03*
X53086000Y-59845200D03*
%TD*%
D20*
%TO.C,J5*%
X40640000Y-48641000D03*
D21*
X43180000Y-48641000D03*
X45720000Y-48641000D03*
X48260000Y-48641000D03*
%TD*%
D20*
%TO.C,J6*%
X44450000Y-69545200D03*
D21*
X41910000Y-69545200D03*
X39370000Y-69545200D03*
X36830000Y-69545200D03*
%TD*%
D13*
%TO.C,H3*%
X5080000Y-68580000D03*
%TD*%
M02*
